<svg width="464" height="447" viewBox="0 0 464 447" fill="none" xmlns="http://www.w3.org/2000/svg">
<path d="M141.633 142.759C141.792 142.483 142.146 142.388 142.419 142.547L142.421 142.549L197.387 174.284V174.285C197.663 174.444 197.758 174.796 197.599 175.073C197.491 175.259 197.295 175.364 197.096 175.364C196.999 175.364 196.902 175.34 196.811 175.287L196.809 175.286L141.843 143.55C141.566 143.391 141.472 143.037 141.632 142.76L141.633 142.759Z" fill="#16C916" stroke="#16C916" stroke-width="1.2499"/>
<path d="M88.1777 143.627C88.4998 143.452 88.9058 143.571 89.082 143.896C89.2584 144.22 89.138 144.625 88.8135 144.802L3.63379 191.021L2.65625 191.552L3.61719 192.111L96.7822 246.323C97.1015 246.509 97.2086 246.918 97.0234 247.235C96.8986 247.45 96.675 247.568 96.4434 247.568C96.3578 247.568 96.2725 247.553 96.1904 247.519L96.1094 247.479L0.957031 192.109C0.746723 191.987 0.621096 191.762 0.625 191.523V191.521C0.628325 191.282 0.761088 191.06 0.973633 190.944L0.974609 190.945L88.1758 143.628L88.1777 143.627Z" fill="#16C916" stroke="#16C916" stroke-width="1.2499"/>
<path d="M212.667 83.1534L315.771 142.681C318.59 144.308 320.873 142.581 320.873 138.824V81.0333C320.873 77.276 318.588 72.9114 315.771 71.2844L212.667 11.7569C209.849 10.1299 207.565 11.8568 207.565 15.6141V73.4044C207.565 77.1618 209.849 81.5264 212.667 83.1534Z" fill="url(#paint0_linear_92_1827)"/>
<path d="M406.504 256.2C407.416 256.726 407.956 257.663 407.956 258.715C407.956 259.769 407.415 260.705 406.504 261.232L318.707 311.922V311.923C316.59 313.146 314.214 313.756 311.837 313.756C309.606 313.756 307.379 313.22 305.364 312.145L304.964 311.922L153.289 224.352C152.377 223.826 151.838 222.89 151.838 221.837C151.838 220.784 152.377 219.846 153.289 219.32L153.288 219.319L247.534 164.909L247.533 164.908L247.958 164.664L406.504 256.2ZM247.646 166.805L154.138 220.792L154.136 220.792C153.616 221.096 153.536 221.595 153.536 221.837C153.536 222.077 153.614 222.579 154.139 222.881L305.814 310.452C309.529 312.596 314.143 312.596 317.857 310.452L405.654 259.76C406.181 259.458 406.259 258.954 406.26 258.715C406.26 258.49 406.19 258.035 405.748 257.729L405.655 257.67L248.271 166.805L247.959 166.625L247.646 166.805Z" fill="#232621" stroke="#C9C9C9" stroke-width="1.2499"/>
<path d="M270.089 0.746094C270.319 0.593184 270.751 0.528399 271.397 0.902344L271.398 0.90332L440.276 98.4043C440.839 98.7296 441.374 99.3389 441.739 100.054C442.061 100.684 442.216 101.324 442.188 101.836L442.164 102.048L420.865 228.41C420.78 228.912 420.558 229.136 420.349 229.225L419.097 229.752L419.276 229.841L418.549 230.261L418.28 228.8L417.926 228.864L418.121 228.414L250.267 131.504C249.704 131.179 249.169 130.569 248.804 129.854C248.436 129.135 248.287 128.402 248.379 127.86V127.859L269.509 2.49414L269.592 2.00586L269.135 1.81348L268.735 1.64453L270.089 0.746094ZM268.707 1.63281L268.6 1.58789L268.741 1.50684L268.707 1.63281Z" fill="#232621" stroke="#C9C9C9" stroke-width="1.2499"/>
<path d="M442.062 100.905C442.182 101.331 442.219 101.725 442.164 102.047V102.048L420.865 228.41C420.78 228.911 420.559 229.136 420.349 229.224L419.083 229.757L419.265 229.846L418.548 230.26L418.28 228.798L417.925 228.863L418.121 228.413L410.033 223.743L440.179 101.738L442.062 100.905Z" fill="#232621" stroke="#C9C9C9" stroke-width="1.2499"/>
<path d="M267.561 2.19141C267.767 2.11118 268.101 2.10452 268.55 2.31738L268.749 2.42285L437.627 99.9238C438.191 100.249 438.726 100.859 439.091 101.573C439.459 102.293 439.608 103.026 439.516 103.567V103.568L418.217 229.931C418.129 230.448 417.899 230.672 417.685 230.756C417.449 230.847 417.048 230.842 416.497 230.524L247.618 133.023C247.055 132.698 246.52 132.088 246.155 131.373C245.787 130.653 245.638 129.92 245.73 129.38V129.379L267.029 3.01758C267.117 2.49949 267.346 2.27507 267.561 2.19141Z" fill="#232621" stroke="#C9C9C9" stroke-width="1.2499"/>
<g opacity="0.51">
<path d="M433.362 104.254L413.399 221.945L251.878 128.692L271.734 10.9375L433.362 104.254Z" fill="#232621" stroke="#C9C9C9" stroke-width="1.2499"/>
</g>
<path d="M245.68 144.878C246.563 144.915 247.453 145.123 248.191 145.48L248.498 145.642L407.886 237.665L408.193 237.842L408.503 237.669C409.247 237.253 411.347 236.213 413.284 235.266C414.107 234.864 414.895 234.482 415.528 234.175L413.027 240.693L412.999 240.67L412.703 241.496C412.631 241.697 412.477 241.919 412.174 242.125L412.035 242.212L314.706 298.405C314.066 298.774 313.133 298.961 312.118 298.918C311.235 298.882 310.345 298.674 309.606 298.317L309.3 298.155L146.195 203.987H146.194C145.549 203.614 145.224 203.203 145.101 202.862L144.844 202.147L144.84 202.149L142.254 194.674L150.076 198.76L150.38 198.918L150.678 198.748L243.091 145.391C243.73 145.022 244.664 144.836 245.68 144.878Z" fill="#232621" stroke="#C9C9C9" stroke-width="1.2499"/>
<path d="M244.855 133.76C245.891 133.803 246.939 134.075 247.751 134.544L414.911 231.054C415.737 231.53 416.059 232.053 416.106 232.428C416.146 232.754 415.998 233.17 415.355 233.541L315.605 291.131C314.946 291.511 313.986 291.702 312.944 291.658C311.907 291.615 310.86 291.343 310.047 290.874L142.887 194.364C142.062 193.888 141.74 193.366 141.693 192.991C141.652 192.665 141.8 192.249 142.444 191.878L242.194 134.287C242.852 133.907 243.813 133.716 244.855 133.76Z" fill="#232621" stroke="#C9C9C9" stroke-width="1.2499"/>
<mask id="path-11-inside-1_92_1827" fill="white">
<path d="M142.575 193.942L309.735 290.451C311.565 291.508 314.332 291.623 315.918 290.708L415.668 233.118C416.187 232.818 416.496 232.442 416.637 232.04C416.888 232.791 416.587 233.551 415.668 234.082L315.918 291.674C314.333 292.588 311.565 292.474 309.735 291.417L142.575 194.907C141.344 194.196 140.87 193.244 141.162 192.416C141.344 192.958 141.806 193.498 142.575 193.942Z"/>
</mask>
<path d="M142.575 193.942L309.735 290.451C311.565 291.508 314.332 291.623 315.918 290.708L415.668 233.118C416.187 232.818 416.496 232.442 416.637 232.04C416.888 232.791 416.587 233.551 415.668 234.082L315.918 291.674C314.333 292.588 311.565 292.474 309.735 291.417L142.575 194.907C141.344 194.196 140.87 193.244 141.162 192.416C141.344 192.958 141.806 193.498 142.575 193.942Z" fill="#232621"/>
<path d="M142.575 193.942L143.2 192.859L143.2 192.859L142.575 193.942ZM309.735 290.451L309.11 291.534L309.11 291.534L309.735 290.451ZM315.918 290.708L316.542 291.791L316.542 291.791L315.918 290.708ZM415.668 233.118L416.293 234.2L416.293 234.2L415.668 233.118ZM416.637 232.04L417.823 231.644L416.669 228.182L415.458 231.625L416.637 232.04ZM415.668 234.082L416.293 235.164L416.293 235.164L415.668 234.082ZM315.918 291.674L315.293 290.591L315.293 290.591L315.918 291.674ZM309.735 291.417L310.361 290.335L310.36 290.334L309.735 291.417ZM142.575 194.907L141.95 195.989L141.95 195.99L142.575 194.907ZM141.162 192.416L142.347 192.019L141.193 188.571L139.983 192L141.162 192.416ZM142.575 193.942L141.95 195.024L309.11 291.534L309.735 290.451L310.36 289.369L143.2 192.859L142.575 193.942ZM309.735 290.451L309.11 291.534C310.229 292.18 311.583 292.514 312.866 292.568C314.137 292.621 315.482 292.403 316.542 291.791L315.918 290.708L315.293 289.626C314.768 289.929 313.936 290.11 312.97 290.07C312.015 290.03 311.07 289.779 310.36 289.369L309.735 290.451ZM315.918 290.708L316.542 291.791L416.293 234.2L415.668 233.118L415.043 232.035L315.293 289.626L315.918 290.708ZM415.668 233.118L416.293 234.2C417.026 233.777 417.56 233.184 417.817 232.454L416.637 232.04L415.458 231.625C415.432 231.7 415.349 231.859 415.043 232.035L415.668 233.118ZM416.637 232.04L415.452 232.435C415.484 232.533 415.473 232.584 415.453 232.627C415.426 232.686 415.334 232.832 415.043 233L415.668 234.082L416.293 235.164C416.921 234.801 417.439 234.301 417.73 233.659C418.027 233.003 418.041 232.298 417.823 231.644L416.637 232.04ZM415.668 234.082L415.043 232.999L315.293 290.591L315.918 291.674L316.542 292.756L416.293 235.164L415.668 234.082ZM315.918 291.674L315.293 290.591C314.768 290.894 313.937 291.076 312.97 291.036C312.016 290.996 311.071 290.745 310.361 290.335L309.735 291.417L309.11 292.499C310.229 293.146 311.583 293.48 312.867 293.534C314.138 293.586 315.483 293.368 316.543 292.756L315.918 291.674ZM309.735 291.417L310.36 290.334L143.2 193.825L142.575 194.907L141.95 195.99L309.11 292.499L309.735 291.417ZM142.575 194.907L143.2 193.825C142.723 193.549 142.491 193.282 142.394 193.105C142.308 192.949 142.327 192.872 142.341 192.832L141.162 192.416L139.983 192C139.395 193.669 140.497 195.15 141.95 195.989L142.575 194.907ZM141.162 192.416L139.977 192.813C140.283 193.726 141.002 194.477 141.951 195.025L142.575 193.942L143.2 192.859C142.609 192.519 142.405 192.191 142.347 192.019L141.162 192.416Z" fill="#C9C9C9" mask="url(#path-11-inside-1_92_1827)"/>
<path d="M359.529 270.494L353.841 273.777V272.757L359.529 269.474V270.494Z" fill="#232621" stroke="#C9C9C9" stroke-width="1.2499"/>
<path d="M349.861 276.077L344.173 279.36V278.341L349.861 275.057V276.077Z" fill="#232621" stroke="#C9C9C9" stroke-width="1.2499"/>
<path d="M248.069 149.03C248.802 148.606 249.704 148.607 250.437 149.03L389.347 229.229C389.623 229.388 389.64 229.771 389.398 229.958L389.346 229.993L339.814 258.575L339.813 258.576C339.082 258.999 338.181 258.999 337.45 258.576H337.449L198.604 178.414L198.552 178.379C198.311 178.192 198.328 177.809 198.604 177.649L198.603 177.648L248.07 149.031L248.069 149.03Z" fill="#232621" stroke="#C9C9C9" stroke-width="1.2499"/>
<path d="M248.07 149.03C248.801 148.607 249.704 148.607 250.437 149.03L389.347 229.229C389.64 229.398 389.642 229.823 389.347 229.994L389.162 230.101L251.062 150.368C249.943 149.722 248.564 149.722 247.444 150.37L198.789 178.52L198.604 178.414L198.552 178.379C198.311 178.192 198.328 177.808 198.603 177.649L248.07 149.031V149.03Z" fill="#232621" stroke="#C9C9C9" stroke-width="1.2499"/>
<path d="M368.801 222.304L364.687 224.681L245.274 155.736L249.39 153.36L368.801 222.304Z" fill="#232621" stroke="#C9C9C9" stroke-width="1.2499"/>
<path d="M348.163 225.576L344.047 227.952L232.12 163.331L236.236 160.954L348.163 225.576Z" fill="#232621" stroke="#C9C9C9" stroke-width="1.2499"/>
<path d="M359.672 242.112L355.557 244.489L223.554 168.276L227.67 165.899L359.672 242.112Z" fill="#232621" stroke="#C9C9C9" stroke-width="1.2499"/>
<path d="M351.105 247.06L346.99 249.435L214.987 173.223L219.102 170.847L351.105 247.06Z" fill="#232621" stroke="#C9C9C9" stroke-width="1.2499"/>
<path d="M342.538 252.005L338.424 254.38L206.42 178.168L210.535 175.792L342.538 252.005Z" fill="#232621" stroke="#C9C9C9" stroke-width="1.2499"/>
<path d="M381.458 229.61L377.343 231.985L373.229 229.61L377.343 227.234L381.458 229.61Z" fill="#232621" stroke="#C9C9C9" stroke-width="1.2499"/>
<path d="M368.306 237.206L364.191 239.582L354.305 233.875L358.42 231.499L368.306 237.206Z" fill="#232621" stroke="#C9C9C9" stroke-width="1.2499"/>
<path d="M236.211 208.615C236.98 208.615 237.723 208.765 238.308 209.04L238.549 209.165L276.005 230.789C276.623 231.145 276.791 231.526 276.791 231.778C276.791 232.03 276.623 232.411 276.005 232.767L250.392 247.555C249.777 247.909 248.932 248.104 248.053 248.104C247.175 248.104 246.331 247.909 245.716 247.554L208.26 225.929C207.643 225.573 207.475 225.192 207.475 224.94C207.475 224.688 207.643 224.308 208.26 223.952L233.873 209.165C234.487 208.81 235.332 208.615 236.211 208.615Z" fill="#232621" stroke="#C9C9C9" stroke-width="1.2499"/>
<path d="M236.21 208.615C236.327 208.615 236.444 208.618 236.559 208.625C236.443 208.619 236.326 208.616 236.21 208.616C236.095 208.616 235.978 208.619 235.862 208.625C235.977 208.618 236.093 208.615 236.21 208.615Z" fill="#232621" stroke="#C9C9C9" stroke-width="1.2499"/>
<g opacity="0.11">
<mask id="mask0_92_1827" style="mask-type:luminance" maskUnits="userSpaceOnUse" x="251" y="9" width="184" height="214">
<path d="M433.364 104.253L413.4 221.944L251.879 128.691L271.736 10.9365L433.364 104.253Z" fill="white" stroke="white" stroke-width="1.2499"/>
</mask>
<g mask="url(#mask0_92_1827)">
<path d="M350.179 72.6548C351.215 72.6979 352.264 72.9699 353.076 73.439L520.236 169.949C521.061 170.425 521.383 170.948 521.43 171.323C521.47 171.649 521.323 172.065 520.68 172.436L420.929 230.026C420.27 230.406 419.31 230.598 418.267 230.555C417.231 230.512 416.184 230.24 415.372 229.771L248.212 133.261C247.387 132.785 247.064 132.263 247.017 131.887C246.977 131.56 247.125 131.145 247.768 130.773L247.767 130.772L347.518 73.1821C348.176 72.8023 349.136 72.6115 350.179 72.6548Z" fill="#232621" stroke="#C9C9C9" stroke-width="1.2499"/>
<path d="M406.367 111.623C407.136 111.623 407.878 111.773 408.463 112.047L408.705 112.172L446.16 133.796C446.778 134.154 446.946 134.535 446.946 134.787C446.946 135.038 446.778 135.419 446.161 135.775L420.547 150.563C419.932 150.918 419.087 151.114 418.208 151.114C417.44 151.114 416.697 150.964 416.112 150.689L415.872 150.563L378.416 128.939C377.798 128.583 377.63 128.202 377.63 127.95C377.63 127.729 377.759 127.41 378.205 127.095L378.416 126.96L404.028 112.172C404.642 111.818 405.488 111.623 406.367 111.623Z" fill="#232621" stroke="#C9C9C9" stroke-width="1.2499"/>
<path d="M406.366 111.625C406.488 111.625 406.61 111.63 406.731 111.637C406.609 111.631 406.487 111.627 406.366 111.627C406.244 111.627 406.122 111.631 406 111.637C406.121 111.63 406.243 111.625 406.366 111.625Z" fill="#232621" stroke="#C9C9C9" stroke-width="1.2499"/>
<path d="M321.346 105.24C322.078 104.816 322.981 104.817 323.714 105.24L462.623 185.439C462.919 185.611 462.916 186.034 462.624 186.202L462.623 186.203L413.091 214.785L413.09 214.786C412.358 215.209 411.458 215.209 410.726 214.786H410.725L271.881 134.624L271.829 134.589C271.588 134.402 271.605 134.019 271.881 133.859L271.88 133.858L321.347 105.241L321.346 105.24Z" fill="#232621" stroke="#C9C9C9" stroke-width="1.2499"/>
<path d="M321.347 105.244C322.078 104.821 322.981 104.821 323.714 105.244L462.624 185.443C462.899 185.602 462.917 185.985 462.676 186.172L462.624 186.207L462.438 186.313L324.339 106.582C323.289 105.976 322.012 105.939 320.933 106.47L320.721 106.584L272.065 134.733L271.881 134.628L271.829 134.593C271.604 134.418 271.604 134.073 271.828 133.898L271.88 133.863L321.347 105.245V105.244Z" fill="#232621" stroke="#C9C9C9" stroke-width="1.2499"/>
<path d="M404.28 201.237L400.736 203.284L280.97 134.136L284.514 132.09L404.28 201.237Z" fill="#232621" stroke="#C9C9C9" stroke-width="1.2499"/>
<path d="M411.037 190.414L407.493 192.46L293.72 126.773L297.264 124.726L411.037 190.414Z" fill="#232621" stroke="#C9C9C9" stroke-width="1.2499"/>
<path d="M430.368 201.577L426.824 203.623L417.331 198.143L420.875 196.097L430.368 201.577Z" fill="#232621" stroke="#C9C9C9" stroke-width="1.2499"/>
<path d="M417.618 208.939L414.074 210.985L407.844 207.388L411.389 205.341L417.618 208.939Z" fill="#232621" stroke="#C9C9C9" stroke-width="1.2499"/>
<path d="M438.359 196.963L434.816 199.009L301.71 122.161L305.254 120.114L438.359 196.963Z" fill="#232621" stroke="#C9C9C9" stroke-width="1.2499"/>
<path d="M446.347 192.35L442.803 194.397L309.698 117.549L313.242 115.502L446.347 192.35Z" fill="#232621" stroke="#C9C9C9" stroke-width="1.2499"/>
<path d="M454.337 187.738L450.793 189.784L317.689 112.937L321.233 110.89L454.337 187.738Z" fill="#232621" stroke="#C9C9C9" stroke-width="1.2499"/>
</g>
</g>
<path d="M421.922 110.949L421.752 111.987L419.689 110.667L419.859 109.628L421.922 110.949Z" fill="#232621" stroke="#C9C9C9" stroke-width="1.2499"/>
<path d="M421.179 115.503L419.121 128.101L417.058 126.782L419.115 114.183L421.179 115.503Z" fill="#232621" stroke="#C9C9C9" stroke-width="1.2499"/>
<path d="M418.547 131.616L417.862 135.807L415.8 134.488L416.483 130.297L418.547 131.616Z" fill="#232621" stroke="#C9C9C9" stroke-width="1.2499"/>
<path d="M417.243 139.604L416.559 143.795L414.495 142.475L415.18 138.284L417.243 139.604Z" fill="#232621" stroke="#C9C9C9" stroke-width="1.2499"/>
<path d="M416.391 112.443L415.705 116.633L413.643 115.315L414.328 111.124L416.391 112.443Z" fill="#232621" stroke="#C9C9C9" stroke-width="1.2499"/>
<path d="M415.087 120.43L413.979 127.213L411.916 125.894L413.022 119.109L415.087 120.43Z" fill="#232621" stroke="#C9C9C9" stroke-width="1.2499"/>
<path d="M413.307 131.323L412.389 136.95L410.326 135.631L411.245 130.004L413.307 131.323Z" fill="#232621" stroke="#C9C9C9" stroke-width="1.2499"/>
<path d="M415.938 147.592L415.253 151.782L413.19 150.464L413.876 146.272L415.938 147.592Z" fill="#232621" stroke="#C9C9C9" stroke-width="1.2499"/>
<path d="M417.135 107.889L416.965 108.927L414.901 107.607L415.071 106.568L417.135 107.889Z" fill="#232621" stroke="#C9C9C9" stroke-width="1.2499"/>
<path d="M414.146 158.566L413.988 159.534L409.531 156.684L409.689 155.716L414.146 158.566Z" fill="#232621" stroke="#C9C9C9" stroke-width="1.2499"/>
<path d="M111.31 238.534C112.403 238.497 113.433 238.694 114.207 239.094L114.358 239.176L244.888 314.539H244.889C245.762 315.043 246.191 315.776 246.191 316.52L246.184 316.678C246.119 317.472 245.568 318.301 244.482 318.928L217.355 334.589C216.358 335.164 215.079 335.47 213.838 335.47C212.767 335.47 211.779 335.243 211.051 334.822L80.5194 259.462C79.6457 258.958 79.2167 258.226 79.2167 257.481C79.2167 256.694 79.6995 255.854 80.7157 255.2L80.9257 255.072L108.054 239.411C108.978 238.876 110.15 238.574 111.31 238.534ZM111.59 239.819C110.612 239.821 109.536 240.054 108.704 240.535L81.576 256.197C81.2125 256.407 80.9638 256.623 80.7987 256.823C80.7166 256.923 80.6531 257.022 80.6073 257.117C80.5812 257.171 80.5428 257.261 80.5253 257.368L80.5165 257.481L80.5214 257.564C80.5313 257.641 80.5528 257.699 80.5634 257.726C80.582 257.773 80.6037 257.814 80.6229 257.846C80.6618 257.91 80.7086 257.969 80.7587 258.022C80.8598 258.13 80.9962 258.236 81.1698 258.336V258.337L211.701 333.698H211.702C212.375 334.085 213.287 334.214 214.155 334.168C215.033 334.121 215.965 333.891 216.706 333.463L243.834 317.801L243.833 317.8C244.196 317.591 244.445 317.377 244.61 317.176C244.692 317.076 244.756 316.976 244.802 316.881C244.837 316.807 244.892 316.674 244.892 316.518C244.892 316.4 244.86 316.31 244.846 316.273C244.827 316.226 244.805 316.184 244.786 316.152C244.747 316.088 244.699 316.029 244.649 315.976C244.548 315.868 244.411 315.761 244.236 315.66H244.235L113.707 240.299C113.116 239.957 112.343 239.819 111.591 239.819H111.59Z" fill="#16C916" stroke="#16C916" stroke-width="1.2499"/>
<path d="M154.44 191.711C159.593 190.209 166.089 191.231 173.229 195.354C185.048 202.178 195.399 215.642 200.879 229.942L201.029 230.33L201.444 230.344C203.151 230.398 205.088 230.961 207.175 232.166C210.964 234.353 214.428 238.132 216.948 242.495C219.467 246.859 221.007 251.749 221.007 256.123C221.007 256.201 221.003 256.278 220.998 256.368C220.992 256.454 220.986 256.559 220.983 256.666L220.966 257.266L221.565 257.307C223.678 257.452 226.049 258.203 228.576 259.662C233.454 262.479 237.906 267.337 241.139 272.938C244.372 278.538 246.354 284.821 246.354 290.454C246.354 296.09 244.38 299.885 241.368 301.624C238.356 303.363 234.082 303.175 229.201 300.356L133.582 245.15C127.669 241.736 122.281 235.853 118.37 229.079C114.459 222.305 112.058 214.698 112.058 207.871C112.057 201.041 114.449 196.408 118.139 194.277C121.829 192.147 127.04 192.391 132.956 195.807C136.317 197.747 139.51 200.491 142.364 203.745L143.099 204.583L143.43 203.519C145.384 197.243 149.308 193.207 154.44 191.711Z" fill="#232621" stroke="#C9C9C9" stroke-width="1.2499"/>
<path d="M150.063 193.811C155.665 189.872 163.889 189.962 173.23 195.354C185.049 202.178 195.401 215.643 200.881 229.943L201.03 230.331L201.445 230.343C203.152 230.398 205.089 230.961 207.176 232.166C210.965 234.353 214.43 238.131 216.95 242.495C219.469 246.858 221.008 251.748 221.008 256.123C221.008 256.2 221.005 256.278 221 256.369C220.994 256.454 220.987 256.56 220.984 256.667L220.967 257.266L221.566 257.307C223.548 257.443 225.756 258.111 228.106 259.397L228.578 259.663C233.456 262.479 237.908 267.337 241.141 272.937C244.374 278.537 246.355 284.822 246.355 290.455C246.355 296.04 244.413 299.81 241.446 301.57L240.776 301.967L215.918 316.396L210.375 289.726L210.318 289.453L210.076 289.312L133.584 245.15C127.672 241.736 122.284 235.854 118.373 229.08C114.461 222.306 112.061 214.699 112.061 207.872V207.871C112.059 201.04 114.451 196.407 118.14 194.277C121.83 192.147 127.039 192.392 132.956 195.807C134.902 196.931 136.792 198.332 138.597 199.941L138.934 200.242L139.326 200.015L150.018 193.838L149.941 193.706L150.063 193.811Z" fill="#232621" stroke="#C9C9C9" stroke-width="1.2499"/>
<path d="M150.062 193.811C155.664 189.872 163.888 189.962 173.229 195.354C185.048 202.178 195.4 215.643 200.88 229.943L201.028 230.331L201.443 230.343C203.15 230.398 205.088 230.961 207.175 232.166C210.963 234.353 214.429 238.131 216.948 242.495C219.468 246.858 221.007 251.748 221.007 256.123C221.007 256.2 221.004 256.278 220.998 256.369C220.993 256.454 220.985 256.56 220.983 256.667L220.967 257.266L221.565 257.307C223.546 257.443 225.754 258.111 228.105 259.397L228.576 259.663C233.455 262.479 237.907 267.337 241.14 272.937C244.373 278.537 246.354 284.822 246.354 290.455C246.354 296.04 244.411 299.811 241.444 301.571L240.852 301.922L215.917 316.396L210.374 289.726L210.317 289.453L210.074 289.312L133.583 245.15C123.98 239.606 115.798 227.57 113.046 215.874L112.965 215.529L112.628 215.421L92.7042 209.054L116.821 195.042L116.817 195.069L118.027 194.348C121.725 192.146 126.978 192.356 132.954 195.807C134.9 196.931 136.79 198.332 138.596 199.941L138.933 200.242L139.324 200.015L150.017 193.838L149.941 193.708L150.062 193.811Z" fill="#232621" stroke="#C9C9C9" stroke-width="1.2499"/>
<path d="M128.166 206.963C133.319 205.461 139.816 206.483 146.955 210.605C158.774 217.43 169.125 230.894 174.605 245.194L174.754 245.582L175.169 245.596C176.876 245.65 178.814 246.213 180.901 247.418C184.689 249.605 188.154 253.384 190.673 257.747C193.192 262.111 194.733 267.001 194.733 271.375C194.733 271.452 194.728 271.53 194.723 271.62C194.718 271.706 194.711 271.811 194.708 271.918L194.692 272.518L195.29 272.559C197.404 272.704 199.774 273.454 202.301 274.913C207.179 277.73 211.631 282.587 214.864 288.188C218.098 293.788 220.079 300.072 220.079 305.704C220.079 311.341 218.105 315.135 215.093 316.874C212.081 318.613 207.807 318.425 202.926 315.606L107.307 260.401C101.394 256.987 96.006 251.104 92.0948 244.33C88.1837 237.556 85.7833 229.949 85.7833 223.122C85.7827 216.291 88.1755 211.658 91.8654 209.527C95.5555 207.397 100.766 207.642 106.682 211.058C110.043 212.998 113.236 215.741 116.09 218.997L116.825 219.836L117.156 218.771C119.11 212.495 123.034 208.459 128.166 206.963Z" fill="#232621" stroke="#C9C9C9" stroke-width="1.2499"/>
<mask id="path-54-inside-2_92_1827" fill="white">
<path d="M115.684 219.109C112.795 215.812 109.55 213.023 106.118 211.04C100.221 207.636 94.8747 207.253 90.946 209.371C94.9357 206.682 100.648 206.851 106.994 210.515C110.227 212.382 113.292 214.973 116.051 218.023C115.923 218.379 115.8 218.739 115.684 219.109Z"/>
</mask>
<path d="M115.684 219.109C112.795 215.812 109.55 213.023 106.118 211.04C100.221 207.636 94.8747 207.253 90.946 209.371C94.9357 206.682 100.648 206.851 106.994 210.515C110.227 212.382 113.292 214.973 116.051 218.023C115.923 218.379 115.8 218.739 115.684 219.109Z" fill="#232621"/>
<path d="M115.684 219.109L114.744 219.933L116.213 221.609L116.877 219.482L115.684 219.109ZM106.118 211.04L106.743 209.958L106.743 209.958L106.118 211.04ZM90.946 209.371L90.2476 208.334L91.5391 210.471L90.946 209.371ZM106.994 210.515L107.619 209.433L107.619 209.433L106.994 210.515ZM116.051 218.023L117.227 218.448L117.482 217.742L116.978 217.185L116.051 218.023ZM115.684 219.109L116.624 218.285C113.663 214.906 110.315 212.022 106.743 209.958L106.118 211.04L105.493 212.123C108.785 214.024 111.927 216.718 114.744 219.933L115.684 219.109ZM106.118 211.04L106.743 209.958C100.622 206.424 94.7951 205.876 90.353 208.27L90.946 209.371L91.5391 210.471C94.9542 208.63 99.8207 208.848 105.493 212.123L106.118 211.04ZM90.946 209.371L91.6445 210.407C95.0953 208.082 100.263 208.072 106.369 211.597L106.994 210.515L107.619 209.433C101.033 205.63 94.776 205.283 90.2476 208.334L90.946 209.371ZM106.994 210.515L106.369 211.597C109.469 213.387 112.434 215.888 115.125 218.862L116.051 218.023L116.978 217.185C114.149 214.058 110.986 211.377 107.619 209.433L106.994 210.515ZM116.051 218.023L114.876 217.598C114.742 217.968 114.613 218.346 114.491 218.737L115.684 219.109L116.877 219.482C116.986 219.133 117.103 218.79 117.227 218.448L116.051 218.023Z" fill="#C9C9C9" mask="url(#path-54-inside-2_92_1827)"/>
<mask id="path-56-inside-3_92_1827" fill="white">
<path d="M219.827 306.23C219.827 294.693 211.729 280.665 201.737 274.897C199.146 273.401 196.685 272.614 194.456 272.46C194.462 272.271 194.48 272.093 194.48 271.9C194.48 262.88 188.148 251.912 180.336 247.402C178.178 246.156 176.141 245.554 174.312 245.496C168.792 231.094 158.36 217.5 146.391 210.59C137.64 205.538 129.712 205.009 123.922 208.223C129.773 204.44 138.065 204.751 147.267 210.063C159.237 216.974 169.67 230.568 175.188 244.969C177.017 245.028 179.054 245.63 181.212 246.875C189.023 251.385 195.356 262.353 195.356 271.373C195.356 271.568 195.337 271.744 195.332 271.934C197.559 272.087 200.022 272.876 202.613 274.372C212.603 280.14 220.703 294.168 220.703 305.705C220.703 311.629 218.563 315.738 215.132 317.558C218.05 315.534 219.827 311.635 219.827 306.23Z"/>
</mask>
<path d="M219.827 306.23C219.827 294.693 211.729 280.665 201.737 274.897C199.146 273.401 196.685 272.614 194.456 272.46C194.462 272.271 194.48 272.093 194.48 271.9C194.48 262.88 188.148 251.912 180.336 247.402C178.178 246.156 176.141 245.554 174.312 245.496C168.792 231.094 158.36 217.5 146.391 210.59C137.64 205.538 129.712 205.009 123.922 208.223C129.773 204.44 138.065 204.751 147.267 210.063C159.237 216.974 169.67 230.568 175.188 244.969C177.017 245.028 179.054 245.63 181.212 246.875C189.023 251.385 195.356 262.353 195.356 271.373C195.356 271.568 195.337 271.744 195.332 271.934C197.559 272.087 200.022 272.876 202.613 274.372C212.603 280.14 220.703 294.168 220.703 305.705C220.703 311.629 218.563 315.738 215.132 317.558C218.05 315.534 219.827 311.635 219.827 306.23Z" fill="#232621"/>
<path d="M201.737 274.897L201.112 275.979L201.112 275.979L201.737 274.897ZM194.456 272.46L193.207 272.418L193.165 273.625L194.37 273.707L194.456 272.46ZM180.336 247.402L180.961 246.319L180.961 246.319L180.336 247.402ZM174.312 245.496L173.145 245.943L173.442 246.719L174.272 246.745L174.312 245.496ZM146.391 210.59L147.016 209.507L147.016 209.507L146.391 210.59ZM123.922 208.223L123.243 207.174L124.529 209.316L123.922 208.223ZM147.267 210.063L147.892 208.981L147.892 208.98L147.267 210.063ZM175.188 244.969L174.02 245.416L174.318 246.192L175.148 246.218L175.188 244.969ZM181.212 246.875L181.836 245.793L181.836 245.793L181.212 246.875ZM195.332 271.934L194.082 271.899L194.049 273.098L195.246 273.181L195.332 271.934ZM202.613 274.372L203.238 273.289L203.238 273.289L202.613 274.372ZM215.132 317.558L214.419 316.531L215.717 318.662L215.132 317.558ZM219.827 306.23H221.077C221.077 300.191 218.966 293.585 215.611 287.775C212.257 281.966 207.592 276.834 202.362 273.815L201.737 274.897L201.112 275.979C205.873 278.728 210.253 283.495 213.446 289.025C216.639 294.556 218.577 300.733 218.577 306.23H219.827ZM201.737 274.897L202.362 273.815C199.643 272.245 196.998 271.382 194.541 271.214L194.456 272.46L194.37 273.707C196.371 273.845 198.649 274.558 201.112 275.979L201.737 274.897ZM194.456 272.46L195.705 272.503C195.707 272.449 195.73 272.094 195.73 271.9H194.48H193.23C193.23 272.092 193.218 272.094 193.207 272.418L194.456 272.46ZM194.48 271.9H195.73C195.73 267.119 194.06 261.908 191.42 257.335C188.78 252.762 185.101 248.71 180.961 246.319L180.336 247.402L179.711 248.484C183.382 250.604 186.776 254.291 189.255 258.585C191.734 262.878 193.23 267.661 193.23 271.9H194.48ZM180.336 247.402L180.961 246.319C178.662 244.992 176.426 244.313 174.352 244.247L174.312 245.496L174.272 246.745C175.856 246.796 177.694 247.32 179.711 248.484L180.336 247.402ZM174.312 245.496L175.479 245.049C169.882 230.445 159.287 216.592 147.016 209.507L146.391 210.59L145.766 211.672C157.432 218.408 167.703 231.744 173.145 245.943L174.312 245.496ZM146.391 210.59L147.016 209.507C138.039 204.325 129.623 203.629 123.315 207.13L123.922 208.223L124.529 209.316C129.802 206.39 137.241 206.75 145.766 211.672L146.391 210.59ZM123.922 208.223L124.601 209.273C129.917 205.835 137.677 205.971 146.642 211.145L147.267 210.063L147.892 208.98C138.453 203.532 129.63 203.044 123.243 207.174L123.922 208.223ZM147.267 210.063L146.642 211.145C158.309 217.882 168.58 231.217 174.02 245.416L175.188 244.969L176.355 244.522C170.759 229.918 160.164 216.067 147.892 208.981L147.267 210.063ZM175.188 244.969L175.148 246.218C176.732 246.269 178.57 246.793 180.587 247.958L181.212 246.875L181.836 245.793C179.538 244.466 177.302 243.786 175.227 243.72L175.188 244.969ZM181.212 246.875L180.587 247.958C184.258 250.077 187.652 253.764 190.131 258.058C192.61 262.352 194.106 267.134 194.106 271.373H195.356H196.606C196.606 266.592 194.936 261.381 192.296 256.808C189.655 252.235 185.977 248.183 181.836 245.793L181.212 246.875ZM195.356 271.373H194.106C194.106 271.431 194.103 271.492 194.098 271.581C194.093 271.66 194.085 271.779 194.082 271.899L195.332 271.934L196.581 271.968C196.583 271.899 196.587 271.835 196.593 271.73C196.599 271.634 196.606 271.51 196.606 271.373H195.356ZM195.332 271.934L195.246 273.181C197.245 273.318 199.525 274.032 201.988 275.454L202.613 274.372L203.238 273.289C200.519 271.719 197.873 270.856 195.417 270.687L195.332 271.934ZM202.613 274.372L201.988 275.454C206.748 278.203 211.129 282.969 214.322 288.5C217.515 294.03 219.453 300.207 219.453 305.705H220.703H221.953C221.953 299.665 219.841 293.06 216.487 287.25C213.132 281.44 208.468 276.309 203.238 273.289L202.613 274.372ZM220.703 305.705H219.453C219.453 311.357 217.424 314.927 214.546 316.454L215.132 317.558L215.717 318.662C219.703 316.548 221.953 311.9 221.953 305.705H220.703ZM215.132 317.558L215.844 318.585C219.213 316.248 221.077 311.883 221.077 306.23H219.827H218.577C218.577 311.388 216.886 314.82 214.419 316.531L215.132 317.558Z" fill="#C9C9C9" mask="url(#path-56-inside-3_92_1827)"/>
<path d="M294.98 364.52L293.791 365.318L230.306 327.098L230.976 325.985L294.98 364.52Z" fill="#16C916" stroke="#16C916" stroke-width="1.2499"/>
<path d="M363.259 282.849C363.445 282.529 363.856 282.423 364.17 282.606L364.171 282.607L446.799 330.687V330.688C447.009 330.811 447.136 331.036 447.132 331.273V331.275C447.129 331.486 447.026 331.682 446.858 331.805L446.783 331.853L389.101 363.152C389 363.206 388.892 363.231 388.784 363.231C388.574 363.231 388.373 363.134 388.245 362.961L388.195 362.883C388.02 362.558 388.141 362.153 388.464 361.977L388.463 361.976L444.124 331.774L445.102 331.244L444.141 330.685L363.5 283.762C363.181 283.575 363.074 283.166 363.259 282.85V282.849Z" fill="#16C916" stroke="#16C916" stroke-width="1.2499"/>
<path d="M343.635 336.118C343.843 335.998 344.096 335.998 344.302 336.117L344.303 336.118L438.612 390.567V390.568C438.82 390.688 438.946 390.909 438.946 391.146C438.946 391.385 438.819 391.605 438.613 391.724V391.725L344.3 446.177C344.198 446.236 344.083 446.266 343.966 446.266C343.878 446.266 343.792 446.249 343.711 446.215L343.633 446.177L249.322 391.726C249.115 391.605 248.988 391.384 248.988 391.148C248.988 390.91 249.116 390.688 249.322 390.569L343.635 336.118ZM343.656 337.649L251.928 390.608L250.99 391.149L251.928 391.69L343.653 444.648L343.966 444.828L344.278 444.648L436.007 391.689L436.944 391.148L436.007 390.607L344.281 337.649L343.969 337.469L343.656 337.649Z" fill="#16C916" stroke="#16C916" stroke-width="1.2499"/>
<path d="M405.339 391.145L343.966 426.579L282.595 391.146L343.968 355.713L405.339 391.145Z" fill="#16C916" stroke="#16C916" stroke-width="1.2499"/>
<path d="M341.032 371.885C341.085 371.967 341.149 372.069 341.212 372.189C341.394 372.534 341.578 373.001 341.622 373.521C341.665 374.031 341.576 374.603 341.198 375.19C340.816 375.785 340.11 376.438 338.848 377.052C336.149 378.365 333.751 379.817 331.872 381.121C330.008 382.414 328.618 383.587 327.962 384.35C327.391 385.013 326.099 386.294 324.424 387.487C322.743 388.683 320.732 389.751 318.714 390.058C316.582 390.382 314.61 390.348 313.363 389.792C312.762 389.523 312.37 389.151 312.174 388.669C311.974 388.179 311.937 387.477 312.244 386.475C312.862 384.461 314.59 382.389 316.4 380.688C318.195 379 319.98 377.761 320.587 377.405C321.226 377.03 322.344 376.4 323.433 375.711C324.504 375.033 325.63 374.248 326.255 373.545C326.807 372.925 327.349 372.351 327.753 371.931C327.95 371.727 328.113 371.559 328.229 371.442L341.032 371.885Z" fill="#232621" stroke="#C9C9C9" stroke-width="1.2499"/>
<path d="M366.395 385.585C366.458 385.776 366.534 386.012 366.611 386.287C366.831 387.075 367.072 388.167 367.16 389.386C367.251 390.656 367.351 392.659 367.44 394.549L367.652 399.035C367.74 400.581 367.694 404.334 364.908 407.857C363.426 409.731 362.401 410.9 361.335 411.455C360.354 411.966 359.257 411.989 357.494 411.243C355.941 410.587 355.127 408.903 354.825 406.792C354.526 404.707 354.763 402.402 355.124 400.842C355.504 399.192 355.893 396.543 356.18 394.229C356.324 393.069 356.444 391.984 356.524 391.14C356.582 390.529 356.624 390.006 356.634 389.677V389.414L356.631 389.206C356.639 389.01 356.675 388.85 356.711 388.733C356.713 388.728 356.715 388.722 356.717 388.717L366.395 385.585Z" fill="#232621" stroke="#C9C9C9" stroke-width="1.2499"/>
<path d="M325.52 284.914C325.826 285.024 326.277 285.188 326.852 285.398C328 285.819 329.643 286.427 331.618 287.176C335.57 288.676 340.85 290.74 346.168 293C351.49 295.261 356.834 297.712 360.921 299.984C362.966 301.121 364.678 302.203 365.909 303.184C366.525 303.674 367.006 304.129 367.347 304.54C367.693 304.957 367.861 305.291 367.912 305.542C368.535 308.609 368.499 311.382 368.239 314.181C368.109 315.585 367.923 316.988 367.735 318.446C367.548 319.899 367.36 321.402 367.229 322.983C366.964 326.175 367.375 332.88 367.898 339.518C368.425 346.199 369.066 352.833 369.281 356.004C369.494 359.125 369.289 365.627 368.725 371.835C368.443 374.935 368.073 377.945 367.626 380.409C367.402 381.64 367.161 382.727 366.904 383.615C366.677 384.402 366.446 385.001 366.223 385.403L366.127 385.563C365.62 386.357 364.799 386.912 363.79 387.289C362.78 387.665 361.622 387.845 360.507 387.912C359.395 387.978 358.352 387.931 357.585 387.866C357.332 387.844 357.11 387.82 356.926 387.798C357.38 383.039 357.458 376.123 357.288 369.948C357.199 366.723 357.043 363.69 356.837 361.258C356.734 360.043 356.618 358.973 356.49 358.101C356.38 357.35 356.259 356.715 356.119 356.259L356.058 356.075C354.88 352.787 352.421 348.483 349.159 336.967C347.517 331.172 346.019 327.79 344.912 325.843C344.358 324.869 343.9 324.25 343.568 323.866C343.403 323.674 343.268 323.54 343.168 323.45C343.118 323.405 343.077 323.37 343.045 323.345C343.029 323.333 343.015 323.322 343.004 323.314C342.998 323.31 342.993 323.306 342.988 323.303C342.986 323.302 342.984 323.3 342.982 323.298C342.981 323.298 342.98 323.297 342.979 323.296L342.979 323.295C342.978 323.295 342.974 323.3 342.628 323.813L342.978 323.295L342.182 322.758L342.013 323.704L342.012 323.707C342.011 323.709 342.011 323.712 342.011 323.715C342.009 323.723 342.007 323.735 342.004 323.75C341.998 323.781 341.991 323.827 341.98 323.886C341.96 324.005 341.93 324.179 341.893 324.403C341.818 324.851 341.713 325.496 341.593 326.289C341.352 327.873 341.048 330.047 340.796 332.406C340.544 334.763 340.343 337.312 340.31 339.644C340.276 341.961 340.408 344.121 340.848 345.668C341.653 348.499 342.137 353.355 342.188 358.454C342.238 363.547 341.854 368.796 340.962 372.403C340.543 374.095 339.678 375.196 338.612 375.889C337.533 376.591 336.206 376.902 334.846 376.929C333.487 376.956 332.131 376.697 331.031 376.297C329.898 375.886 329.155 375.37 328.887 374.967C328.232 373.984 328.148 372.889 328.244 372.001C328.292 371.561 328.383 371.184 328.462 370.918C328.501 370.786 328.536 370.683 328.562 370.615C328.574 370.581 328.585 370.555 328.591 370.54C328.594 370.532 328.596 370.527 328.598 370.524V370.522L328.65 370.4L328.648 370.266C328.528 362.155 327.336 354.669 326.177 349.214C325.597 346.486 325.025 344.263 324.597 342.72C324.383 341.949 324.204 341.348 324.079 340.938C324.017 340.733 323.968 340.576 323.935 340.47C323.918 340.417 323.904 340.377 323.896 340.349C323.891 340.336 323.888 340.325 323.886 340.318C323.885 340.314 323.883 340.312 323.883 340.31C323.882 340.309 323.882 340.308 323.882 340.307L323.288 340.502L323.882 340.306L323.875 340.286L323.866 340.265L323.576 339.536C320.622 331.902 319.091 321.257 318.303 312.365C317.897 307.786 317.689 303.69 317.583 300.739C317.53 299.263 317.503 298.075 317.488 297.255C317.481 296.846 317.477 296.528 317.475 296.314C317.474 296.267 317.473 296.226 317.473 296.189L325.494 284.904C325.503 284.907 325.511 284.91 325.52 284.914Z" fill="#232621" stroke="#C9C9C9" stroke-width="1.2499"/>
<path d="M324.128 293.375C324.303 293.38 324.536 293.392 324.823 293.411C325.398 293.449 326.177 293.512 327.124 293.597C329.018 293.767 331.575 294.022 334.502 294.329C340.325 294.941 347.608 295.757 354.045 296.506C357.796 298.268 361.188 300.027 363.701 301.631C364.969 302.44 365.994 303.199 366.725 303.887C367.475 304.593 367.832 305.148 367.912 305.541C368.535 308.609 368.499 311.382 368.239 314.182C368.109 315.585 367.922 316.989 367.734 318.446C367.547 319.9 367.359 321.403 367.228 322.983C366.963 326.176 367.376 332.882 367.898 339.52C368.425 346.201 369.065 352.836 369.281 356.008C369.494 359.129 369.288 365.63 368.724 371.838C368.442 374.937 368.073 377.948 367.626 380.411C367.402 381.643 367.16 382.729 366.903 383.617C366.643 384.517 366.379 385.17 366.127 385.565L366.123 385.569C366.886 381.424 368.462 371.202 367.342 362.376C366.627 356.745 365.887 350.75 365.347 345.911C365.076 343.492 364.856 341.365 364.714 339.72C364.57 338.049 364.512 336.934 364.549 336.495C364.635 335.456 364.723 330.961 364.663 326.595C364.633 324.407 364.566 322.234 364.44 320.527C364.378 319.676 364.3 318.927 364.203 318.346C364.155 318.056 364.099 317.794 364.033 317.576C363.989 317.428 363.928 317.257 363.836 317.104L363.733 316.96L363.659 316.882C363.477 316.712 363.237 316.62 363.062 316.562C362.828 316.486 362.54 316.423 362.221 316.368C361.579 316.258 360.729 316.168 359.743 316.086C357.78 315.922 355.156 315.78 352.43 315.578C349.683 315.375 346.791 315.109 344.205 314.691C341.603 314.272 339.376 313.708 337.921 312.94C334.92 311.357 332.214 308.769 330.152 306.3C328.082 303.819 326.724 301.533 326.376 300.604L326.201 300.137L325.706 300.203C325.706 300.203 325.704 300.204 325.703 300.204C325.701 300.204 325.697 300.204 325.692 300.205C325.682 300.206 325.666 300.208 325.646 300.211C325.604 300.216 325.541 300.225 325.46 300.234C325.298 300.254 325.063 300.28 324.771 300.309C324.185 300.367 323.374 300.434 322.472 300.471C320.814 300.539 318.932 300.498 317.564 300.156C317.524 298.93 317.501 297.932 317.488 297.221C317.481 296.823 317.478 296.514 317.476 296.306C317.475 296.263 317.475 296.224 317.475 296.189L318.183 295.191C319.251 294.794 320.407 294.379 321.424 294.043C322.519 293.681 323.394 293.432 323.838 293.375L323.837 293.374C323.835 293.374 323.841 293.375 323.855 293.374C323.87 293.373 323.891 293.372 323.917 293.372C323.97 293.371 324.04 293.372 324.128 293.375Z" fill="#232621" stroke="#C9C9C9" stroke-width="1.2499"/>
<path d="M356.801 199.15C356.802 199.15 356.803 199.15 356.804 199.149C356.812 199.144 356.831 199.131 356.86 199.115C356.918 199.084 357.016 199.042 357.155 199.019C357.418 198.974 357.901 198.986 358.609 199.416C358.728 199.489 358.917 199.657 359.169 199.948C359.412 200.23 359.685 200.591 359.975 201.009C360.554 201.845 361.182 202.876 361.765 203.887C362.346 204.895 362.878 205.875 363.264 206.603C363.457 206.966 363.614 207.267 363.722 207.476C363.776 207.58 363.818 207.662 363.846 207.718C363.86 207.745 363.871 207.766 363.878 207.78L363.888 207.8L363.889 207.801V207.802L363.949 207.922L364.055 208.006L380.182 220.97L360.238 241.974L359.991 242.232L360.089 242.576L360.09 242.577V242.579C360.091 242.581 360.092 242.585 360.093 242.589C360.096 242.598 360.1 242.611 360.105 242.629C360.115 242.664 360.129 242.715 360.149 242.783C360.187 242.92 360.245 243.121 360.319 243.381C360.466 243.9 360.679 244.652 360.941 245.582C361.465 247.443 362.187 250.021 362.976 252.885C364.555 258.616 366.402 265.486 367.482 270.065C368.554 274.614 369.682 282.655 370.237 290.243C370.514 294.035 370.646 297.698 370.559 300.744C370.471 303.824 370.158 306.169 369.606 307.398C369.076 308.577 368.064 309.484 366.563 310.172C365.053 310.864 363.089 311.316 360.732 311.601C356.013 312.17 349.902 312.045 343.098 311.951C336.604 311.862 332.712 308.082 330.414 304.25C329.264 302.332 328.523 300.414 328.071 298.973C327.879 298.362 327.741 297.838 327.644 297.439C327.64 297.243 327.613 297.068 327.579 296.923C327.545 296.775 327.502 296.654 327.467 296.567C327.449 296.524 327.433 296.488 327.42 296.461C327.414 296.447 327.407 296.436 327.403 296.427C327.4 296.422 327.398 296.418 327.397 296.415C327.396 296.413 327.396 296.412 327.395 296.41L327.393 296.408V296.407C327.392 296.407 327.378 296.414 326.844 296.707L327.392 296.407L326.228 296.812L326.229 296.814C326.229 296.815 326.229 296.816 326.229 296.817C326.229 296.82 326.23 296.824 326.231 296.828C326.232 296.837 326.235 296.849 326.238 296.865C326.244 296.898 326.253 296.945 326.265 297.006C326.289 297.127 326.326 297.301 326.377 297.522C326.381 297.539 326.386 297.555 326.39 297.571C326.385 297.64 326.377 297.712 326.358 297.786C326.259 298.168 325.875 298.831 324.352 299.378L324.031 299.485C323.702 299.589 323.221 299.593 322.578 299.457C321.945 299.323 321.21 299.066 320.405 298.71C318.793 297.998 316.97 296.924 315.231 295.781C313.496 294.641 311.862 293.443 310.635 292.493C310.021 292.018 309.511 291.607 309.143 291.298C308.959 291.143 308.812 291.017 308.707 290.922C308.698 290.913 308.689 290.905 308.681 290.897C308.681 290.894 308.682 290.891 308.682 290.888C308.698 290.725 308.735 290.485 308.794 290.17C308.912 289.543 309.105 288.669 309.354 287.626C309.85 285.544 310.554 282.819 311.275 280.108C311.995 277.399 312.73 274.708 313.284 272.693C313.562 271.686 313.794 270.849 313.957 270.263C314.039 269.97 314.103 269.74 314.147 269.583C314.169 269.505 314.185 269.445 314.197 269.404C314.202 269.384 314.206 269.369 314.209 269.358C314.211 269.353 314.211 269.349 314.212 269.347C314.213 269.345 314.213 269.344 314.213 269.344V269.343L314.218 269.325L314.222 269.308L319.128 246.806L319.135 246.771L319.139 246.736V246.734C319.139 246.733 319.14 246.731 319.14 246.729C319.14 246.724 319.141 246.717 319.142 246.708C319.144 246.69 319.146 246.663 319.149 246.629C319.155 246.56 319.165 246.458 319.175 246.325C319.196 246.058 319.223 245.665 319.251 245.153C319.307 244.13 319.362 242.633 319.361 240.731C319.357 236.929 319.127 231.506 318.224 225.011C316.779 214.63 319.216 207.626 320.153 205.418C320.267 205.148 320.485 204.946 320.755 204.854L320.874 204.822C322.462 204.491 325.616 203.848 328.374 203.288C329.753 203.008 331.033 202.749 331.968 202.56C332.435 202.465 332.817 202.388 333.081 202.335C333.213 202.308 333.316 202.288 333.386 202.273C333.421 202.266 333.448 202.26 333.466 202.257C333.467 202.257 333.469 202.256 333.47 202.256L356.48 199.292L356.67 199.267L356.801 199.15ZM356.809 199.145C356.807 199.146 356.805 199.147 356.804 199.147L356.809 199.143V199.145Z" fill="#232621" stroke="#C9C9C9" stroke-width="1.2499"/>
<path d="M324.434 296.945C324.626 297.562 324.867 298.264 325.165 299.018C324.867 299.179 324.496 299.339 324.032 299.485H324.031C323.73 299.58 323.303 299.592 322.737 299.489C322.177 299.387 321.529 299.18 320.813 298.885C320.518 298.764 320.215 298.627 319.906 298.48C320.594 298.598 321.246 298.606 321.811 298.427C323.069 298.03 323.903 297.517 324.434 296.945Z" fill="#232621" stroke="#C9C9C9" stroke-width="1.2499"/>
<path d="M369.184 308.143C368.605 308.968 367.735 309.637 366.566 310.173C365.056 310.865 363.091 311.317 360.734 311.602C356.015 312.17 349.905 312.047 343.101 311.953C341.847 311.936 340.691 311.78 339.626 311.515C340.239 311.588 340.873 311.632 341.531 311.642C348.67 311.74 355.224 311.876 360.311 311.263C362.856 310.956 365.079 310.457 366.845 309.647C367.742 309.237 368.53 308.74 369.184 308.143Z" fill="#232621" stroke="#C9C9C9" stroke-width="1.2499"/>
<path d="M356.612 199.024C357.316 198.982 357.824 199.048 358.155 199.18C358.163 199.191 358.172 199.203 358.18 199.216C358.25 199.326 358.349 199.493 358.454 199.711C358.665 200.15 358.901 200.79 358.991 201.588C359.169 203.158 358.797 205.437 356.346 208.083C353.15 211.536 347.654 218.961 342.943 226.677C341.491 229.058 340.115 230.862 338.869 232.638C338.152 233.66 337.486 234.669 336.892 235.751C336.889 235.527 336.886 235.29 336.884 235.041C336.863 232.835 336.84 229.668 336.836 225.825C336.833 222.197 336.854 218.503 336.922 215.481C336.982 212.812 337.078 210.722 337.217 209.651L337.278 209.255C337.34 208.942 337.598 208.487 338.131 207.909C338.649 207.346 339.371 206.727 340.249 206.082C342.004 204.792 344.328 203.438 346.758 202.262C349.188 201.086 351.698 200.1 353.82 199.531C354.883 199.246 355.831 199.071 356.612 199.024Z" fill="#232621" stroke="#C9C9C9" stroke-width="1.2499"/>
<path d="M337.68 167.498C340.209 165.804 343.68 164.761 348.443 165.019C353.207 165.276 356.298 166.691 358.292 168.599C360.291 170.51 361.255 172.98 361.639 175.469C362.024 177.96 361.821 180.436 361.516 182.301C361.364 183.23 361.189 184.002 361.051 184.539C360.983 184.807 360.923 185.017 360.881 185.158C360.861 185.229 360.844 185.282 360.833 185.317C360.828 185.335 360.824 185.348 360.822 185.356C360.82 185.361 360.819 185.364 360.819 185.365L360.818 185.367L360.645 185.897L361.136 186.121C361.137 186.122 361.139 186.124 361.143 186.126C361.155 186.133 361.181 186.15 361.212 186.177C361.275 186.23 361.365 186.325 361.44 186.479C361.583 186.773 361.73 187.398 361.306 188.579C360.845 189.864 360.568 190.569 360.346 191.11C360.125 191.651 359.95 192.054 359.708 192.71C359.463 193.378 359.305 193.844 359.059 194.284C358.825 194.701 358.505 195.104 357.927 195.569L357.74 195.72L357.702 195.957L357.319 198.352L357.3 198.471L357.327 198.588C357.327 198.589 357.327 198.59 357.328 198.591C357.329 198.595 357.329 198.603 357.332 198.613C357.336 198.635 357.343 198.671 357.351 198.719C357.367 198.814 357.388 198.958 357.406 199.143C357.442 199.514 357.466 200.048 357.417 200.687C357.317 201.964 356.924 203.646 355.75 205.285C355.194 206.058 354.281 206.777 353.168 207.422C352.064 208.062 350.806 208.605 349.612 209.046C348.42 209.486 347.303 209.819 346.483 210.042C346.074 210.153 345.739 210.237 345.508 210.293C345.393 210.321 345.303 210.342 345.243 210.355C345.213 210.362 345.19 210.368 345.175 210.371C345.168 210.373 345.162 210.374 345.159 210.375C345.157 210.375 345.156 210.376 345.155 210.376H345.154L345.056 210.396L344.97 210.447L344.969 210.448C344.969 210.449 344.967 210.449 344.966 210.449L344.898 210.488C344.85 210.516 344.781 210.556 344.695 210.603C344.523 210.697 344.289 210.82 344.039 210.939C343.786 211.06 343.53 211.169 343.31 211.242C343.112 211.308 343.011 211.32 342.985 211.323C342.971 211.317 342.944 211.305 342.9 211.279C342.819 211.233 342.715 211.162 342.593 211.071C342.35 210.889 342.069 210.649 341.797 210.403C341.527 210.159 341.274 209.916 341.088 209.734C340.996 209.644 340.92 209.569 340.868 209.517C340.842 209.49 340.822 209.47 340.808 209.456C340.801 209.449 340.796 209.444 340.792 209.44C340.791 209.439 340.79 209.437 340.79 209.437H340.789V209.436L340.616 209.26L340.369 209.249H340.368C340.366 209.249 340.363 209.248 340.359 209.248C340.351 209.248 340.338 209.247 340.322 209.246C340.289 209.244 340.239 209.241 340.175 209.236C340.047 209.227 339.86 209.212 339.635 209.187C339.183 209.135 338.581 209.046 337.97 208.896C337.353 208.743 336.761 208.536 336.307 208.264C335.849 207.988 335.612 207.696 335.544 207.399C335.303 206.345 335.112 205.306 334.914 204.349C334.72 203.418 334.517 202.548 334.253 201.928V201.927C334.026 201.393 333.417 199.806 332.87 198.088C332.596 197.23 332.342 196.347 332.158 195.554C331.971 194.748 331.868 194.077 331.875 193.623C331.893 192.571 331.947 191.056 331.885 189.557C331.824 188.073 331.65 186.51 331.166 185.376C331.099 185.22 330.996 184.767 330.931 184.025C330.868 183.309 330.844 182.384 330.899 181.327C331.009 179.21 331.434 176.595 332.471 174.085C333.508 171.578 335.147 169.195 337.68 167.498ZM361.152 186.128V186.129H361.151L361.15 186.128C361.149 186.127 361.147 186.126 361.146 186.126C361.144 186.125 361.142 186.125 361.141 186.124C361.139 186.123 361.138 186.123 361.137 186.122L361.152 186.128Z" fill="#232621" stroke="#C9C9C9" stroke-width="1.2499"/>
<path d="M318.735 207.083C318.452 208.096 318.137 209.321 317.849 210.656C317.076 214.243 316.474 218.752 317.315 222.122V222.123C318.095 225.255 318.287 230.711 318.294 235.645C318.298 238.097 318.257 240.398 318.224 242.185C318.207 243.076 318.193 243.843 318.188 244.435C318.182 245.01 318.185 245.461 318.208 245.693C318.217 245.778 318.204 245.948 318.138 246.222C318.074 246.484 317.973 246.797 317.841 247.147C317.577 247.848 317.207 248.656 316.826 249.429C316.446 250.2 316.061 250.926 315.77 251.459C315.624 251.725 315.503 251.943 315.418 252.094C315.376 252.169 315.342 252.228 315.319 252.268C315.308 252.287 315.3 252.302 315.294 252.312C315.291 252.318 315.289 252.322 315.287 252.324C315.287 252.325 315.287 252.327 315.286 252.327H315.285L314.96 252.894L315.539 253.193C316.776 253.836 318.079 255.014 319.097 256.069C319.599 256.591 320.022 257.07 320.318 257.419C320.465 257.593 320.581 257.735 320.659 257.832C320.699 257.881 320.728 257.918 320.748 257.943C320.758 257.956 320.766 257.965 320.771 257.971C320.773 257.974 320.774 257.976 320.776 257.978L320.776 257.979L320.878 258.109L321.03 258.173L335.463 264.164L333.182 275.323C333.169 275.385 333.11 275.411 333.062 275.392C325.536 272.335 301.513 262.661 300.184 262.116L300.191 262.118C300.18 262.109 300.118 262.056 300.026 261.881C299.916 261.669 299.803 261.353 299.7 260.931C299.495 260.089 299.35 258.919 299.29 257.524C299.171 254.74 299.394 251.15 300.087 247.694C300.773 244.278 302.603 240.176 304.797 235.703C306.976 231.26 309.508 226.463 311.518 221.751C315.056 213.457 317.342 209.229 318.735 207.083Z" fill="#232621" stroke="#C9C9C9" stroke-width="1.2499"/>
<path d="M320.34 246.92C320.608 246.916 320.852 246.92 321.045 246.935C321.156 246.943 321.228 246.954 321.269 246.961L321.311 246.967C321.602 247.105 322.453 247.434 323.253 247.739L325.12 248.456C325.191 248.486 325.369 248.586 325.638 248.756C325.892 248.916 326.189 249.112 326.472 249.304C326.574 249.372 326.673 249.441 326.767 249.506C326.318 249.863 325.879 250.324 325.47 250.813C324.772 251.65 324.085 252.659 323.484 253.622C322.882 254.587 322.357 255.52 321.984 256.21C321.835 256.486 321.709 256.725 321.612 256.911L321.575 256.902C321.48 256.741 321.368 256.582 321.247 256.435C321.039 256.181 320.784 255.915 320.505 255.65C319.946 255.12 319.26 254.56 318.603 254.054C317.944 253.546 317.304 253.084 316.829 252.75C316.623 252.606 316.448 252.485 316.315 252.395C316.335 252.196 316.388 251.928 316.492 251.592C316.643 251.103 316.87 250.541 317.13 249.971C317.648 248.831 318.272 247.704 318.603 247.124L318.604 247.125C318.648 247.05 318.721 247.003 318.809 246.996C319.21 246.966 319.804 246.928 320.34 246.92Z" fill="#232621" stroke="#C9C9C9" stroke-width="1.2499"/>
<path d="M365.681 262.926C366.372 265.559 367.003 268.039 367.48 270.066H367.481C368.178 273.018 368.895 277.452 369.466 282.284C367.17 283.507 364.155 284.814 360.142 284.895C352.295 285.053 346.205 282.329 342.07 279.56C340.002 278.175 338.426 276.78 337.37 275.735C336.938 275.307 336.594 274.937 336.338 274.652L365.681 262.926Z" fill="#232621" stroke="#C9C9C9" stroke-width="1.2499"/>
<path d="M381.002 221.554C381.859 222.01 382.452 222.803 382.832 223.905C383.239 225.087 383.384 226.587 383.336 228.291C383.242 231.699 382.387 235.738 381.568 239.276C380.767 242.735 376.857 252.959 371.829 262.312C369.317 266.984 366.545 271.402 363.768 274.636C362.379 276.253 361.005 277.555 359.678 278.444C358.349 279.335 357.109 279.785 355.973 279.77C353.457 279.738 349.898 278.906 345.927 277.642C341.972 276.383 337.666 274.715 333.676 273.046C329.688 271.379 326.025 269.715 323.358 268.468C322.025 267.845 320.942 267.325 320.192 266.962C319.833 266.789 319.551 266.651 319.354 266.554C319.361 266.472 319.369 266.366 319.386 266.231C319.483 265.471 319.762 263.917 320.5 260.775C321.396 256.965 323.329 254.288 325.039 252.562C325.894 251.699 326.691 251.075 327.272 250.668C327.514 250.499 327.718 250.369 327.873 250.274C328.437 250.653 329.306 251.155 330.358 251.726C331.675 252.441 333.324 253.29 335.122 254.194C337.819 255.549 340.862 257.03 343.646 258.369L346.322 259.649C349.897 261.354 354.112 259.217 354.862 255.331L355.105 254.065C355.113 254.045 355.125 254.021 355.137 253.992C355.175 253.904 355.231 253.774 355.306 253.604C355.456 253.264 355.678 252.766 355.965 252.136C356.54 250.877 357.376 249.093 358.423 246.993C360.519 242.789 363.451 237.331 366.806 232.294C370.119 227.32 373.742 224.629 376.515 223.181C377.904 222.456 379.083 222.041 379.908 221.808C380.32 221.692 380.644 221.621 380.861 221.58C380.915 221.569 380.962 221.561 381.002 221.554ZM328.195 250.085H328.193C328.193 250.086 328.195 250.085 328.195 250.085Z" fill="#232621" stroke="#C9C9C9" stroke-width="1.2499"/>
<path d="M381.002 221.554C381.859 222.01 382.452 222.803 382.832 223.905C383.239 225.087 383.384 226.587 383.336 228.291C383.242 231.699 382.387 235.738 381.568 239.276C380.767 242.735 376.857 252.959 371.829 262.312C369.317 266.984 366.545 271.402 363.768 274.636C362.379 276.253 361.005 277.555 359.678 278.444C358.349 279.335 357.109 279.785 355.973 279.77C353.457 279.738 349.898 278.906 345.927 277.642C341.972 276.383 337.666 274.715 333.676 273.046C329.688 271.379 326.025 269.715 323.358 268.468C322.025 267.845 320.942 267.325 320.192 266.962C319.833 266.789 319.551 266.651 319.354 266.554C319.361 266.472 319.369 266.366 319.386 266.231C319.483 265.471 319.762 263.917 320.5 260.775C321.396 256.965 323.329 254.288 325.039 252.562C325.894 251.699 326.691 251.075 327.272 250.668C327.514 250.499 327.718 250.369 327.873 250.274C328.437 250.653 329.306 251.155 330.358 251.726C331.675 252.441 333.324 253.29 335.122 254.194C337.819 255.549 340.862 257.03 343.646 258.369L346.322 259.649C349.897 261.354 354.112 259.217 354.862 255.331L355.105 254.065C355.113 254.045 355.125 254.021 355.137 253.992C355.175 253.904 355.231 253.774 355.306 253.604C355.456 253.264 355.678 252.766 355.965 252.136C356.54 250.877 357.376 249.093 358.423 246.993C360.519 242.789 363.451 237.331 366.806 232.294C370.119 227.32 373.742 224.629 376.515 223.181C377.904 222.456 379.083 222.041 379.908 221.808C380.32 221.692 380.644 221.621 380.861 221.58C380.915 221.569 380.962 221.561 381.002 221.554ZM328.195 250.085H328.193C328.193 250.086 328.195 250.085 328.195 250.085Z" fill="#232621" stroke="#C9C9C9" stroke-width="1.2499"/>
<path d="M359.906 254.396C360.113 254.394 360.369 254.413 360.608 254.479C360.848 254.545 361.028 254.647 361.142 254.784C361.245 254.907 361.347 255.12 361.321 255.523C361.291 255.986 361.192 256.197 361.115 256.304C361.036 256.414 360.934 256.487 360.723 256.603C360.532 256.708 360.206 256.869 359.927 257.152C359.63 257.454 359.41 257.86 359.284 258.433C359.151 259.033 358.589 259.405 357.822 259.618C357.46 259.718 357.102 259.767 356.833 259.791C356.699 259.802 356.59 259.807 356.515 259.809C356.478 259.81 356.449 259.81 356.431 259.81H356.41L356.134 260.99C356.13 260.998 356.131 261 356.13 261L356.127 260.998C356.126 260.997 356.124 260.996 356.123 260.996C356.119 260.994 356.116 260.991 356.113 260.99C356.106 260.986 356.099 260.983 356.092 260.979C356.079 260.971 356.065 260.963 356.051 260.954C356.024 260.935 355.997 260.913 355.971 260.887C355.919 260.834 355.88 260.772 355.857 260.708C355.811 260.58 355.846 260.51 355.829 260.565C355.793 260.678 355.639 260.995 355.094 261.639L354.836 261.935C354.624 262.173 354.353 262.257 353.975 262.209C353.571 262.158 353.096 261.957 352.614 261.672C352.157 261.402 351.735 261.082 351.417 260.819L359.736 254.403C359.784 254.4 359.841 254.396 359.906 254.396Z" fill="#232621" stroke="#C9C9C9" stroke-width="1.2499"/>
<path d="M359.287 256.169L358.367 256.121L358.668 256.994C358.668 256.994 358.67 256.996 358.67 256.999C358.672 257.005 358.675 257.016 358.679 257.032C358.688 257.065 358.7 257.116 358.711 257.182C358.734 257.315 358.749 257.493 358.725 257.681C358.682 258.024 358.514 258.439 357.876 258.717C357.057 259.074 356.629 259.111 356.452 259.101C356.432 259.099 356.415 259.096 356.402 259.094L355.495 258.021L355.381 259.543V259.544C355.381 259.546 355.38 259.551 355.379 259.559C355.378 259.573 355.375 259.597 355.371 259.629C355.361 259.693 355.345 259.787 355.318 259.899C355.263 260.128 355.167 260.411 355.009 260.667C354.853 260.919 354.648 261.128 354.374 261.25C354.11 261.367 353.725 261.431 353.154 261.306L347.509 258.804C347.889 258.481 348.389 258.064 348.944 257.618V257.617C349.329 257.307 349.733 256.794 350.109 256.251C350.495 255.693 350.888 255.049 351.248 254.435C351.607 253.821 351.94 253.224 352.198 252.769C352.328 252.539 352.437 252.348 352.524 252.204C352.624 252.038 352.66 251.993 352.65 252.004C352.645 252.009 352.658 251.996 352.705 251.956C352.746 251.921 352.803 251.875 352.874 251.819C353.015 251.708 353.205 251.565 353.434 251.401C353.892 251.074 354.492 250.669 355.141 250.276C355.792 249.882 356.482 249.508 357.12 249.232C357.774 248.95 358.307 248.802 358.668 248.801C358.886 248.8 358.985 248.832 359.025 248.852C359.027 248.882 359.027 248.957 358.981 249.098C358.912 249.307 358.778 249.549 358.625 249.762C358.55 249.865 358.477 249.954 358.416 250.021C358.347 250.094 358.313 250.118 358.319 250.114H358.318C358.128 250.238 357.569 250.521 357.009 250.793C356.74 250.924 356.484 251.046 356.295 251.135C356.201 251.179 356.123 251.216 356.07 251.241C356.043 251.254 356.022 251.263 356.008 251.27C356.001 251.273 355.995 251.276 355.992 251.277C355.99 251.278 355.989 251.279 355.988 251.279H355.987V251.28L355.919 251.312L355.861 251.358L355.859 251.359C355.858 251.36 355.857 251.361 355.855 251.362C355.851 251.365 355.845 251.37 355.837 251.376C355.822 251.388 355.801 251.405 355.773 251.428C355.717 251.472 355.637 251.537 355.541 251.614C355.347 251.77 355.087 251.98 354.819 252.197C354.551 252.414 354.275 252.64 354.05 252.827C353.945 252.914 353.843 253.001 353.755 253.076L353.553 253.261C353.505 253.31 353.419 253.414 353.384 253.573C353.344 253.759 353.39 253.936 353.48 254.068C353.557 254.181 353.65 254.241 353.699 254.269C353.752 254.299 353.801 254.317 353.833 254.327C353.94 254.362 354.058 254.373 354.126 254.378C354.292 254.39 354.524 254.393 354.783 254.391C355.299 254.387 356.051 254.365 356.79 254.354C357.546 254.344 358.321 254.344 358.958 254.382C359.276 254.401 359.546 254.427 359.755 254.464C359.985 254.504 360.066 254.544 360.066 254.544C360.267 254.674 360.382 254.928 360.36 255.263C360.336 255.625 360.17 255.849 360.085 255.899C359.825 256.052 359.606 256.119 359.463 256.147C359.392 256.162 359.338 256.167 359.308 256.169C359.298 256.17 359.291 256.169 359.287 256.169Z" fill="#232621" stroke="#C9C9C9" stroke-width="1.2499"/>
<path d="M334.644 168.32C337.226 164.838 341.255 161.618 347.223 162.273C353.393 162.951 357.042 164.932 359.227 167.439C361.421 169.956 362.222 173.094 362.508 176.249C362.791 179.377 362.37 181.633 361.892 183.092C361.653 183.822 361.4 184.355 361.211 184.699C361.195 184.728 361.178 184.754 361.163 184.78C360.421 184.512 359.731 184.476 359.103 184.615C358.342 184.784 357.727 185.193 357.257 185.633C356.786 186.073 356.44 186.563 356.213 186.937C356.098 187.125 356.011 187.287 355.952 187.404C355.923 187.463 355.9 187.511 355.885 187.545C355.877 187.562 355.87 187.575 355.866 187.585C355.864 187.59 355.862 187.594 355.86 187.598C355.86 187.599 355.86 187.601 355.859 187.602L355.858 187.604V187.604C355.862 187.607 355.91 187.627 356.432 187.85L355.857 187.604L355.833 187.664L355.82 187.727L355.229 190.667V190.668C355.191 190.858 355.015 190.99 354.822 190.974L354.365 190.937C354.198 190.923 354.062 190.801 354.024 190.642L354.014 190.571L353.923 188.559C353.902 188.115 353.778 187.683 353.561 187.297L353.464 187.135L351.549 184.196H351.548C351.333 183.865 351.24 183.474 351.282 183.082V183.081C351.367 182.277 351.452 180.974 351.308 179.71C351.169 178.489 350.795 177.098 349.78 176.352H349.779C349.046 175.813 348.05 175.798 347.039 175.972C346.001 176.15 344.778 176.557 343.451 177.062C340.753 178.087 337.59 179.523 334.227 180.588C332.608 181.1 331.739 180.942 331.278 180.641C330.82 180.341 330.568 179.771 330.496 178.978C330.425 178.196 330.544 177.327 330.691 176.632C330.764 176.289 330.84 175.997 330.899 175.793C330.928 175.691 330.953 175.611 330.969 175.558C330.978 175.531 330.985 175.511 330.989 175.498C330.991 175.492 330.993 175.486 330.994 175.483L330.995 175.481L331 175.467L331.004 175.452C331.004 175.451 331.005 175.448 331.006 175.445C331.007 175.439 331.011 175.43 331.014 175.417C331.022 175.391 331.034 175.352 331.051 175.3C331.084 175.196 331.135 175.041 331.204 174.844C331.343 174.448 331.556 173.882 331.85 173.205C332.441 171.849 333.354 170.061 334.644 168.32Z" fill="#232621" stroke="#C9C9C9" stroke-width="1.2499"/>
<path d="M343.683 216.215C344.016 216.253 344.458 216.314 344.905 216.379C345.278 216.433 345.649 216.49 345.956 216.538C345.778 216.696 345.549 216.907 345.303 217.156C344.753 217.713 344.071 218.502 343.667 219.355V219.356C343.435 219.848 343.331 220.539 343.282 221.22C343.232 221.923 343.235 222.701 343.261 223.418C343.264 223.524 343.272 223.63 343.276 223.733L342.979 219.948C342.984 219.92 342.991 219.885 342.998 219.844C343.018 219.728 343.047 219.562 343.083 219.362C343.154 218.963 343.249 218.43 343.347 217.894C343.444 217.357 343.543 216.819 343.621 216.409C343.634 216.339 343.648 216.273 343.66 216.212C343.668 216.213 343.676 216.214 343.683 216.215Z" fill="#232621" stroke="#C9C9C9" stroke-width="1.2499"/>
<mask id="path-80-inside-4_92_1827" fill="white">
<path d="M339.666 212.247C339.666 212.247 337.651 212.33 336.728 213.06C336.728 213.06 338.835 213.216 339.169 213.262C339.502 213.309 339.666 212.247 339.666 212.247Z"/>
</mask>
<path d="M339.666 212.247C339.666 212.247 337.651 212.33 336.728 213.06C336.728 213.06 338.835 213.216 339.169 213.262C339.502 213.309 339.666 212.247 339.666 212.247Z" fill="#232621"/>
<path d="M339.666 212.247L340.901 212.437L341.132 210.935L339.614 210.998L339.666 212.247ZM336.728 213.06L335.952 212.08L333.439 214.07L336.636 214.307L336.728 213.06ZM339.666 212.247C339.614 210.998 339.614 210.998 339.614 210.998C339.614 210.998 339.613 210.998 339.613 210.998C339.613 210.998 339.613 210.998 339.612 210.998C339.611 210.998 339.61 210.998 339.609 210.998C339.607 210.998 339.605 210.998 339.602 210.998C339.595 210.999 339.587 210.999 339.577 211C339.557 211.001 339.53 211.002 339.496 211.004C339.429 211.009 339.334 211.016 339.219 211.027C338.99 211.048 338.673 211.086 338.32 211.149C337.68 211.265 336.674 211.508 335.952 212.08L336.728 213.06L337.504 214.04C337.705 213.881 338.168 213.717 338.766 213.609C339.032 213.561 339.276 213.532 339.454 213.515C339.542 213.507 339.612 213.502 339.658 213.499C339.681 213.497 339.698 213.496 339.708 213.496C339.713 213.496 339.717 213.495 339.718 213.495C339.719 213.495 339.719 213.495 339.719 213.495C339.719 213.495 339.719 213.495 339.718 213.495C339.718 213.495 339.718 213.495 339.718 213.495C339.718 213.495 339.718 213.495 339.717 213.495C339.717 213.495 339.717 213.495 339.666 212.247ZM336.728 213.06C336.636 214.307 336.636 214.307 336.636 214.307C336.636 214.307 336.636 214.307 336.636 214.307C336.636 214.307 336.636 214.307 336.637 214.307C336.637 214.307 336.637 214.307 336.638 214.307C336.639 214.307 336.64 214.307 336.642 214.307C336.646 214.307 336.652 214.308 336.659 214.308C336.675 214.309 336.697 214.311 336.726 214.313C336.784 214.318 336.868 214.324 336.968 214.331C337.17 214.347 337.443 214.368 337.725 214.39C338.008 214.412 338.299 214.436 338.539 214.456C338.659 214.467 338.764 214.476 338.847 214.484C338.888 214.488 338.923 214.492 338.95 214.495C338.963 214.496 338.974 214.498 338.982 214.499C338.986 214.499 338.99 214.5 338.992 214.5C338.993 214.5 338.994 214.5 338.994 214.5C338.995 214.5 338.995 214.5 338.995 214.5L339.169 213.262L339.342 212.025C339.127 211.995 338.464 211.94 337.922 211.898C337.636 211.875 337.36 211.854 337.157 211.839C337.055 211.831 336.971 211.825 336.912 211.82C336.883 211.818 336.86 211.817 336.845 211.815C336.837 211.815 336.831 211.814 336.827 211.814C336.825 211.814 336.823 211.814 336.822 211.814C336.821 211.814 336.821 211.814 336.821 211.814C336.821 211.814 336.821 211.814 336.82 211.814C336.82 211.814 336.82 211.814 336.82 211.814C336.82 211.814 336.82 211.814 336.728 213.06ZM339.169 213.262L338.995 214.5C339.843 214.619 340.312 213.989 340.426 213.818C340.587 213.578 340.681 213.316 340.733 213.151C340.792 212.965 340.833 212.789 340.859 212.666C340.872 212.603 340.882 212.549 340.889 212.51C340.892 212.49 340.895 212.474 340.897 212.461C340.898 212.455 340.899 212.45 340.9 212.446C340.9 212.444 340.9 212.442 340.9 212.44C340.901 212.44 340.901 212.439 340.901 212.438C340.901 212.438 340.901 212.438 340.901 212.437C340.901 212.437 340.901 212.437 340.901 212.437C340.901 212.437 340.901 212.437 339.666 212.247C338.43 212.057 338.43 212.056 338.43 212.056C338.43 212.056 338.43 212.056 338.43 212.056C338.43 212.056 338.43 212.055 338.43 212.055C338.431 212.055 338.431 212.054 338.431 212.054C338.431 212.054 338.431 212.053 338.431 212.053C338.431 212.053 338.431 212.054 338.43 212.056C338.43 212.059 338.429 212.065 338.427 212.075C338.424 212.093 338.418 212.122 338.411 212.158C338.396 212.233 338.375 212.319 338.351 212.394C338.339 212.43 338.33 212.454 338.325 212.467C338.318 212.482 338.324 212.465 338.348 212.429C338.367 212.4 338.44 212.296 338.586 212.197C338.664 212.144 338.772 212.087 338.906 212.051C339.045 212.014 339.193 212.004 339.342 212.025L339.169 213.262Z" fill="#C9C9C9" mask="url(#path-80-inside-4_92_1827)"/>
<path d="M339.343 212.978C339.679 212.907 340.217 212.914 340.841 212.977C341.447 213.039 342.072 213.146 342.549 213.239C342.786 213.285 342.985 213.327 343.124 213.358C343.141 213.362 343.157 213.365 343.172 213.369L345.731 215.882C345.457 216.044 345.133 216.253 344.792 216.511C343.961 217.14 342.987 218.091 342.441 219.381C342.382 219.388 342.316 219.398 342.246 219.405C341.91 219.438 341.466 219.468 341.02 219.459C340.563 219.451 340.15 219.402 339.852 219.3C339.543 219.195 339.512 219.092 339.508 219.074C339.448 218.806 339.418 218.402 339.409 217.881C339.401 217.369 339.413 216.793 339.423 216.192C339.441 215.092 339.45 213.852 339.254 213C339.278 212.992 339.308 212.985 339.343 212.978Z" fill="#232621" stroke="#C9C9C9" stroke-width="1.2499"/>
<path d="M339.589 219.729C339.894 219.718 340.302 219.713 340.72 219.743C341.145 219.772 341.551 219.834 341.865 219.94C342.199 220.052 342.302 220.17 342.326 220.219V220.22C342.358 220.288 342.406 220.441 342.457 220.701C342.505 220.948 342.549 221.254 342.588 221.602C342.665 222.297 342.721 223.129 342.76 223.934C342.8 224.737 342.823 225.507 342.836 226.076C342.842 226.36 342.846 226.594 342.848 226.756C342.849 226.79 342.849 226.821 342.849 226.849C342.107 228.208 340.275 231.715 338.607 234.925C337.846 236.39 337.118 237.796 336.54 238.913L336.802 225.564C336.815 225.542 336.83 225.518 336.845 225.492C336.925 225.357 337.038 225.166 337.173 224.94C337.445 224.487 337.804 223.896 338.157 223.341C338.563 222.703 338.936 221.661 339.197 220.839C339.331 220.417 339.442 220.03 339.52 219.75C339.522 219.744 339.522 219.738 339.524 219.732C339.545 219.731 339.566 219.73 339.589 219.729Z" fill="#232621" stroke="#C9C9C9" stroke-width="1.2499"/>
<path d="M356.081 196.609C356.468 196.762 356.964 196.863 357.558 196.822L357.315 198.35L357.297 198.469L357.323 198.586V198.589C357.324 198.593 357.326 198.601 357.328 198.611C357.332 198.633 357.339 198.669 357.347 198.717C357.363 198.812 357.384 198.956 357.402 199.141C357.438 199.512 357.462 200.047 357.413 200.686C357.314 201.963 356.921 203.645 355.746 205.283C355.191 206.056 354.278 206.775 353.166 207.42C352.061 208.06 350.804 208.604 349.61 209.045C348.418 209.485 347.301 209.819 346.481 210.042C346.072 210.153 345.737 210.236 345.506 210.292C345.391 210.32 345.302 210.341 345.242 210.354C345.212 210.361 345.188 210.367 345.173 210.37C345.166 210.372 345.16 210.373 345.157 210.374L345.153 210.375L345.054 210.396L344.968 210.446V210.447C344.968 210.448 344.966 210.448 344.964 210.449C344.962 210.451 344.957 210.454 344.952 210.457C344.94 210.464 344.921 210.475 344.897 210.488C344.849 210.516 344.78 210.555 344.694 210.602C344.522 210.696 344.287 210.819 344.037 210.938C343.784 211.059 343.528 211.17 343.308 211.242C343.112 211.307 343.011 211.319 342.984 211.322C342.971 211.316 342.943 211.304 342.898 211.278C342.817 211.232 342.714 211.162 342.592 211.071C342.349 210.889 342.069 210.649 341.797 210.402C341.697 210.312 341.601 210.222 341.508 210.136C341.76 210.042 342.053 209.93 342.38 209.793C343.514 209.318 345.067 208.566 346.754 207.457C349.983 205.333 353.72 201.883 355.923 196.541C355.973 196.564 356.026 196.588 356.081 196.609Z" fill="#232621" stroke="#C9C9C9" stroke-width="1.2499"/>
<path d="M360.195 217.638L360.642 218.076L360.855 217.857L361.21 218.425C353.443 226.206 347.315 233.367 343.113 238.609C343.045 238.693 342.979 238.777 342.912 238.86C342.916 238.855 342.92 238.851 342.923 238.846C345.269 235.557 348.019 232.152 350.647 229.072C353.273 225.992 355.773 223.243 357.616 221.262C358.538 220.272 359.295 219.475 359.822 218.925C360.085 218.651 360.289 218.437 360.429 218.293C360.499 218.222 360.552 218.167 360.588 218.13C360.606 218.112 360.619 218.099 360.628 218.089C360.633 218.085 360.636 218.081 360.638 218.079C360.639 218.077 360.64 218.076 360.641 218.076L360.195 217.638ZM363.107 215.223L362.595 215.111C362.649 215.087 362.726 215.048 362.799 214.978L362.798 214.977C362.871 214.907 362.916 214.833 362.929 214.81C362.95 214.773 362.969 214.736 362.985 214.703C363.016 214.636 363.051 214.555 363.085 214.468C363.119 214.383 363.153 214.284 363.194 214.175L363.107 215.223Z" fill="#232621" stroke="#C9C9C9" stroke-width="1.2499"/>
<path d="M329.92 208.751V208.752V208.756C329.92 208.759 329.919 208.763 329.919 208.769C329.918 208.779 329.917 208.796 329.916 208.816C329.913 208.859 329.909 208.921 329.903 209.003C329.893 209.167 329.876 209.409 329.858 209.722C329.822 210.347 329.775 211.256 329.73 212.391C329.641 214.66 329.563 217.837 329.604 221.47C329.607 221.768 329.611 222.07 329.616 222.375C329.456 218.272 329.507 213.647 329.902 208.531L329.938 208.509L329.92 208.751Z" fill="#232621" stroke="#C9C9C9" stroke-width="1.2499"/>
<path d="M341.964 323.975C341.945 324.086 341.921 324.231 341.892 324.405C341.817 324.853 341.713 325.499 341.592 326.291C341.351 327.875 341.047 330.049 340.795 332.407C340.543 334.764 340.342 337.314 340.309 339.646C340.276 341.964 340.408 344.123 340.848 345.671C341.653 348.501 342.137 353.358 342.188 358.457C342.238 363.551 341.855 368.798 340.963 372.405V372.406C340.666 373.609 340.139 374.512 339.474 375.185C340.111 371.782 341.436 363.591 340.762 357.369C340.327 353.349 339.437 349.615 338.708 346.51C338.343 344.95 338.021 343.559 337.81 342.355C337.598 341.144 337.509 340.174 337.586 339.447C337.671 338.65 337.913 337.173 338.203 335.313C338.492 333.467 338.823 331.271 339.076 329.074C339.328 326.881 339.505 324.67 339.482 322.798C339.474 322.196 339.443 321.623 339.388 321.092L341.964 323.975Z" fill="#232621" stroke="#C9C9C9" stroke-width="1.2499"/>
<path d="M376.817 252.032C375.37 255.325 373.675 258.881 371.828 262.317C369.316 266.989 366.544 271.408 363.767 274.642C362.378 276.258 361.005 277.56 359.678 278.449C358.349 279.34 357.108 279.791 355.972 279.776C353.456 279.744 349.898 278.912 345.927 277.648C341.972 276.39 337.666 274.721 333.676 273.053C329.688 271.385 326.025 269.721 323.358 268.474C322.025 267.85 320.941 267.331 320.191 266.968C319.832 266.794 319.55 266.656 319.353 266.56C319.37 266.348 319.412 266.005 319.506 265.459C322.271 266.847 328.493 269.91 334.93 272.635C338.481 274.138 342.111 275.546 345.265 276.514C346.842 276.998 348.311 277.374 349.599 277.599C350.877 277.821 352.022 277.901 352.931 277.758C354.916 277.445 357.283 275.886 359.697 273.77C362.14 271.627 364.732 268.822 367.175 265.859C371.185 260.998 374.845 255.649 376.817 252.032Z" fill="#232621" stroke="#C9C9C9" stroke-width="1.2499"/>
<path d="M362.593 178.398C362.573 180.505 362.225 182.096 361.852 183.202C361.619 183.893 361.375 184.397 361.195 184.723C361.185 184.742 361.174 184.759 361.164 184.776C360.423 184.508 359.734 184.472 359.106 184.611C358.345 184.779 357.729 185.188 357.259 185.628C356.788 186.068 356.442 186.559 356.215 186.932C356.1 187.12 356.014 187.283 355.955 187.4C355.926 187.459 355.902 187.506 355.887 187.541C355.879 187.558 355.873 187.571 355.868 187.582C355.866 187.587 355.865 187.591 355.863 187.594C355.862 187.596 355.862 187.597 355.861 187.598L355.86 187.599V187.6C355.86 187.6 355.86 187.601 356.434 187.846L355.86 187.601L355.835 187.66L355.822 187.723L355.232 190.663L355.231 190.664C355.193 190.854 355.018 190.986 354.825 190.97H354.824L354.367 190.932C354.2 190.918 354.064 190.797 354.026 190.638L354.016 190.568L353.925 188.554C353.901 188.047 353.742 187.556 353.465 187.13L351.997 184.877C352.173 184.817 352.375 184.747 352.599 184.665C353.453 184.351 354.632 183.876 355.933 183.225C358.095 182.145 360.64 180.558 362.593 178.398Z" fill="#232621" stroke="#C9C9C9" stroke-width="1.2499"/>
<path d="M265.438 44.5327L326.034 79.518C328.852 81.145 331.137 85.5096 331.137 89.2669V147.057C331.137 150.815 328.852 152.542 326.034 150.915L254.467 109.595L265.438 44.5327Z" fill="#232621"/>
<path d="M212.507 9.97168C213.174 9.4633 214.168 9.37067 215.432 10.1006L318.536 69.6279C319.812 70.3641 321.015 71.7555 321.903 73.4521C322.788 75.1434 323.326 77.0753 323.326 78.8359V136.626C323.326 138.484 322.731 139.636 321.976 140.138L320.958 140.814L321.015 140.835L319.808 141.698L319.723 140.564L319.697 140.217L319.386 140.057L319.159 139.941L216.057 80.416C214.782 79.6799 213.579 78.2883 212.691 76.5918C211.806 74.9005 211.268 72.9687 211.268 71.208V13.416C211.268 12.9047 211.319 12.4414 211.405 12.0195L211.53 11.4023L210.911 11.2822L210.724 11.2461L212.492 9.9834L212.507 9.97168Z" fill="#232621" stroke="#C9C9C9" stroke-width="1.2499"/>
<path d="M320.397 71.2285C321.554 72.5642 322.486 74.363 322.967 76.2178L296.469 91.5156L290.864 88.2793L320.397 71.2285Z" fill="#232621" stroke="#C9C9C9" stroke-width="1.2499"/>
<path d="M209.437 12.165C210.103 11.6613 211.094 11.5702 212.354 12.2979L315.459 71.8252C316.733 72.5613 317.937 73.9528 318.825 75.6494C319.71 77.3407 320.248 79.2727 320.248 81.0332V138.823C320.248 140.599 319.707 141.739 319.002 142.272C318.336 142.776 317.344 142.867 316.084 142.14L212.979 82.6123C211.704 81.8762 210.501 80.4847 209.613 78.7881C208.728 77.0968 208.19 75.1649 208.19 73.4043V15.6143C208.19 13.8387 208.731 12.6984 209.437 12.165Z" fill="#232621" stroke="#C9C9C9" stroke-width="1.2499"/>
<mask id="path-94-inside-5_92_1827" fill="white">
<path d="M320.315 139.12V81.3299C320.315 77.5725 318.031 73.2079 315.214 71.5809L212.109 12.0534C210.999 11.4125 209.975 11.2996 209.137 11.6187C210.054 10.9739 211.296 10.9661 212.667 11.7576L315.772 71.2851C318.59 72.9121 320.873 77.2767 320.873 81.034V138.824C320.873 141.101 320.031 142.626 318.743 143.116C319.711 142.438 320.315 141.049 320.315 139.12Z"/>
</mask>
<path d="M320.315 139.12V81.3299C320.315 77.5725 318.031 73.2079 315.214 71.5809L212.109 12.0534C210.999 11.4125 209.975 11.2996 209.137 11.6187C210.054 10.9739 211.296 10.9661 212.667 11.7576L315.772 71.2851C318.59 72.9121 320.873 77.2767 320.873 81.034V138.824C320.873 141.101 320.031 142.626 318.743 143.116C319.711 142.438 320.315 141.049 320.315 139.12Z" fill="#232621"/>
<path d="M315.214 71.5809L315.839 70.4986L315.839 70.4985L315.214 71.5809ZM212.109 12.0534L212.734 10.9709L212.734 10.9708L212.109 12.0534ZM209.137 11.6187L208.418 10.5962L209.582 12.7868L209.137 11.6187ZM212.667 11.7576L213.292 10.6751L213.292 10.675L212.667 11.7576ZM315.772 71.2851L315.147 72.3676V72.3676L315.772 71.2851ZM318.743 143.116L318.025 142.093L319.188 144.284L318.743 143.116ZM320.315 139.12H321.565V81.3299H320.315H319.066V139.12H320.315ZM320.315 81.3299H321.565C321.565 79.215 320.928 76.9869 319.928 75.0769C318.934 73.1777 317.515 71.4668 315.839 70.4986L315.214 71.5809L314.589 72.6633C315.729 73.3221 316.861 74.607 317.714 76.2361C318.561 77.8545 319.066 79.6874 319.066 81.3299H320.315ZM315.214 71.5809L315.839 70.4985L212.734 10.9709L212.109 12.0534L211.484 13.1358L314.589 72.6634L315.214 71.5809ZM212.109 12.0534L212.734 10.9708C211.393 10.1971 209.973 9.96294 208.692 10.4507L209.137 11.6187L209.582 12.7868C209.977 12.6362 210.604 12.6278 211.485 13.1359L212.109 12.0534ZM209.137 11.6187L209.856 12.6413C210.265 12.3535 210.962 12.2167 212.043 12.8401L212.667 11.7576L213.292 10.675C211.63 9.71562 209.843 9.59432 208.418 10.5962L209.137 11.6187ZM212.667 11.7576L212.042 12.84L315.147 72.3676L315.772 71.2851L316.397 70.2027L213.292 10.6751L212.667 11.7576ZM315.772 71.2851L315.147 72.3676C316.288 73.0264 317.419 74.3111 318.272 75.9402C319.119 77.5586 319.623 79.3914 319.623 81.034H320.873H322.123C322.123 78.9193 321.486 76.6912 320.487 74.7812C319.493 72.8819 318.074 71.1708 316.397 70.2027L315.772 71.2851ZM320.873 81.034H319.623V138.824H320.873H322.123V81.034H320.873ZM320.873 138.824H319.623C319.623 140.872 318.878 141.727 318.298 141.948L318.743 143.116L319.188 144.284C321.185 143.524 322.123 141.33 322.123 138.824H320.873ZM318.743 143.116L319.46 144.14C320.895 143.134 321.565 141.262 321.565 139.12H320.315H319.066C319.066 140.837 318.527 141.742 318.025 142.093L318.743 143.116Z" fill="#C9C9C9" mask="url(#path-94-inside-5_92_1827)"/>
<path d="M306.306 80.1489C306.543 80.2864 306.808 80.5753 307.017 80.9731C307.222 81.3659 307.34 81.8037 307.34 82.1812V94.9448C307.34 94.9737 307.341 95.0005 307.342 95.0229V95.0356C307.338 95.0363 307.326 95.0376 307.305 95.0356C307.257 95.0313 307.18 95.0128 307.064 94.9644C306.95 94.9165 306.82 94.8484 306.667 94.7603L222.52 46.2231C221.962 45.9009 221.449 45.2051 221.387 44.5239L221.38 44.3882L221.585 32.1567V32.147C221.585 31.6945 221.597 31.4316 221.641 31.2671L306.306 80.1489Z" fill="#232621" stroke="#C9C9C9" stroke-width="1.2499"/>
<path d="M306.307 107.975C306.544 108.112 306.809 108.401 307.017 108.799C307.223 109.192 307.341 109.629 307.341 110.007V122.771C307.341 122.811 307.337 122.849 307.335 122.886C307.268 122.866 307.185 122.838 307.088 122.794C306.943 122.728 306.789 122.645 306.635 122.556L306.634 122.555L222.344 73.9746H222.343C222.112 73.8407 221.866 73.5648 221.676 73.1768C221.488 72.7946 221.381 72.3589 221.381 71.9678L221.425 59.877V59.875C221.425 59.497 221.46 59.2026 221.516 59.0205L306.307 107.975Z" fill="#232621" stroke="#C9C9C9" stroke-width="1.2499"/>
<path d="M221.11 44.645C221.191 44.93 221.301 45.2061 221.434 45.4604C221.654 45.8802 221.956 46.2789 222.32 46.5728L222.132 46.4644C221.894 46.3269 221.629 46.0381 221.421 45.6401C221.253 45.3192 221.145 44.9684 221.11 44.645Z" fill="#232621" stroke="#C9C9C9" stroke-width="1.2499"/>
<path d="M221.11 72.4707C221.191 72.7557 221.301 73.0317 221.434 73.2861C221.654 73.7048 221.954 74.1028 222.317 74.3965L222.132 74.29C221.894 74.1526 221.629 73.8638 221.421 73.4658C221.253 73.1448 221.145 72.7941 221.11 72.4707Z" fill="#232621" stroke="#C9C9C9" stroke-width="1.2499"/>
<path d="M284.275 71.3359L284.054 73.5781L283.983 74.3076L284.714 74.2637L286.234 74.1719L286.6 75.5029L285.322 75.3369L284.21 75.1924L284.671 76.2139L285.8 78.7158L285.219 78.7783L284.32 76.0811L283.857 74.6943L283.174 75.9873L282.583 77.1045L281.548 75.8057L282.664 74.6562L283.089 74.2188L282.662 73.7832L280.701 71.7852L280.9 71.2705L282.245 72.9209L283.54 74.5098L283.352 72.4697L283.19 70.709L284.275 71.3359Z" fill="#232621" stroke="#C9C9C9" stroke-width="1.2499"/>
<path d="M274.53 65.709L274.31 67.9502L274.237 68.6797L274.969 68.6357L276.489 68.5439L276.855 69.875L275.576 69.709L274.465 69.5645L274.926 70.5859L276.055 73.0879L275.475 73.1504L274.573 70.4521L274.109 69.0674L273.428 70.3594L272.837 71.4766L271.802 70.1777L272.918 69.0283L273.343 68.5908L272.916 68.1553L270.955 66.1572L271.153 65.6426L272.499 67.293L273.794 68.8818L273.605 66.8418L273.443 65.0811L274.53 65.709Z" fill="#232621" stroke="#C9C9C9" stroke-width="1.2499"/>
<path d="M264.781 60.0791L264.56 62.3213L264.489 63.0508L265.22 63.0068L266.74 62.915L267.106 64.2461L265.828 64.0801L264.716 63.9355L265.177 64.957L266.306 67.459L265.725 67.5215L264.826 64.8252L264.363 63.4395L263.68 64.7314L263.089 65.8477L262.054 64.5488L263.171 63.3994L263.595 62.9619L263.169 62.5264L261.208 60.5283L261.406 60.0137L262.752 61.6641L264.047 63.2529L263.858 61.2129L263.696 59.4521L264.781 60.0791Z" fill="#232621" stroke="#C9C9C9" stroke-width="1.2499"/>
<path d="M255.036 54.4536L254.815 56.6958L254.743 57.4253L255.474 57.3813L256.995 57.2896L257.36 58.6206L256.081 58.4546L254.97 58.3101L255.431 59.3315L256.56 61.8335L255.979 61.896L255.078 59.1997L254.615 57.8149L253.933 59.106L253.342 60.2222L252.307 58.9233L253.423 57.7739L253.848 57.3364L253.421 56.9009L251.46 54.9028L251.661 54.3882L253.006 56.0386L254.3 57.6274L254.113 55.5874L253.951 53.8267L255.036 54.4536Z" fill="#232621" stroke="#C9C9C9" stroke-width="1.2499"/>
<path d="M245.29 48.8267L245.069 51.0679L244.997 51.7974L245.729 51.7534L247.249 51.6616L247.614 52.9927L246.336 52.8267L245.225 52.6821L245.686 53.7036L246.814 56.2056L246.234 56.2681L245.333 53.5698L244.869 52.1851L244.188 53.4771L243.597 54.5942L242.562 53.2954L243.678 52.146L244.103 51.7085L243.676 51.2729L241.715 49.2749L241.913 48.7603L243.259 50.4106L244.554 51.9995L244.365 49.9595L244.203 48.1987L245.29 48.8267Z" fill="#232621" stroke="#C9C9C9" stroke-width="1.2499"/>
<path d="M284.275 99.166L284.054 101.408L283.983 102.138L284.714 102.094L286.234 102.002L286.6 103.333L285.322 103.167L284.21 103.022L284.671 104.044L285.8 106.546L285.219 106.608L284.32 103.912L283.857 102.526L283.174 103.818L282.583 104.935L281.548 103.636L282.664 102.486L283.089 102.049L282.662 101.613L280.701 99.6152L280.9 99.1006L282.245 100.751L283.54 102.34L283.352 100.3L283.19 98.5391L284.275 99.166Z" fill="#232621" stroke="#C9C9C9" stroke-width="1.2499"/>
<path d="M274.53 93.5381L274.31 95.7793L274.237 96.5088L274.969 96.4648L276.489 96.373L276.855 97.7041L275.576 97.5381L274.465 97.3936L274.926 98.415L276.055 100.917L275.475 100.979L274.573 98.2812L274.109 96.8965L273.428 98.1885L272.837 99.3057L271.802 98.0068L272.918 96.8574L273.343 96.4199L272.916 95.9844L270.955 93.9863L271.153 93.4717L272.499 95.1221L273.794 96.7109L273.605 94.6709L273.443 92.9102L274.53 93.5381Z" fill="#232621" stroke="#C9C9C9" stroke-width="1.2499"/>
<path d="M264.781 87.9131L264.56 90.1553L264.489 90.8848L265.22 90.8408L266.74 90.749L267.106 92.0801L265.828 91.9141L264.717 91.7695L265.177 92.791L266.306 95.293L265.725 95.3555L264.826 92.6582L264.363 91.2715L263.68 92.5645L263.09 93.6816L262.054 92.3828L263.171 91.2334L263.595 90.7959L263.169 90.3604L261.208 88.3623L261.406 87.8477L262.752 89.498L264.047 91.0869L263.858 89.0469L263.696 87.2861L264.781 87.9131Z" fill="#232621" stroke="#C9C9C9" stroke-width="1.2499"/>
<path d="M255.036 82.2827L254.815 84.5249L254.743 85.2544L255.474 85.2104L256.995 85.1187L257.36 86.4497L256.081 86.2837L254.97 86.1392L255.431 87.1606L256.56 89.6626L255.98 89.7251L255.078 87.0269L254.615 85.6421L253.933 86.9341L253.342 88.0513L252.307 86.7524L253.423 85.603L253.848 85.1655L253.421 84.73L251.46 82.7319L251.661 82.2173L253.006 83.8677L254.3 85.4565L254.113 83.4165L253.951 81.6558L255.036 82.2827Z" fill="#232621" stroke="#C9C9C9" stroke-width="1.2499"/>
<path d="M245.29 76.6558L245.069 78.897L244.997 79.6265L245.729 79.5825L247.249 79.4907L247.614 80.8218L246.336 80.6558L245.225 80.5112L245.686 81.5327L246.814 84.0347L246.234 84.0972L245.333 81.3989L244.869 80.0142L244.188 81.3062L243.597 82.4233L242.562 81.1245L243.678 79.9751L244.103 79.5376L243.676 79.1021L241.715 77.104L241.913 76.5894L243.259 78.2397L244.554 79.8286L244.365 77.7886L244.203 76.0278L245.29 76.6558Z" fill="#232621" stroke="#C9C9C9" stroke-width="1.2499"/>
<path opacity="0.3" d="M241.142 365.586L228.282 373.011L215.422 365.586L228.282 358.162L241.142 365.586Z" fill="#D9D9D9"/>
<path opacity="0.1" d="M283.994 307.859L271.135 315.284L258.275 307.859L271.134 300.435L283.994 307.859Z" fill="#D9D9D9"/>
<path opacity="0.1" d="M226.862 110.774L214.002 118.198L201.142 110.774L214.002 103.349L226.862 110.774Z" fill="#4846A5"/>
<path opacity="0.3" d="M298.278 332.6L285.417 340.025L272.557 332.6L285.416 325.174L298.278 332.6Z" fill="#D9D9D9"/>
<path opacity="0.3" d="M455.384 291.37L442.524 298.795L429.664 291.37L442.524 283.946L455.384 291.37Z" fill="#D9D9D9"/>
<path opacity="0.3" d="M152.599 175.273L139.739 182.698L126.879 175.273L139.739 167.848L152.599 175.273Z" fill="#D9D9D9"/>
<path opacity="0.3" d="M464 175.073L451.14 182.497L438.28 175.073L451.14 167.648L464 175.073Z" fill="#4846A5"/>
<path opacity="0.1" d="M68.3267 188.29L55.4665 195.714L42.6063 188.289L55.4665 180.865L68.3267 188.29Z" fill="#D9D9D9"/>
<path d="M113.634 93.4951C114.167 93.1882 114.83 93.1874 115.361 93.4951L115.362 93.4961L169.54 124.774H169.541C170.072 125.08 170.403 125.655 170.403 126.271C170.403 126.885 170.071 127.459 169.539 127.766H169.538L115.363 159.045C115.097 159.196 114.8 159.274 114.499 159.274C114.196 159.274 113.897 159.195 113.637 159.046L59.457 127.766C58.9245 127.457 58.5947 126.882 58.5947 126.269C58.5948 125.655 58.9252 125.081 59.4561 124.773L113.633 93.4941L113.634 93.4951ZM114.186 94.7178L60.4736 125.727L59.5361 126.268L60.4736 126.809L114.187 157.82L114.499 158L114.812 157.82L168.521 126.81L169.459 126.269L168.521 125.728L114.811 94.7178L114.498 94.5371L114.186 94.7178Z" fill="#232621" stroke="#C9C9C9" stroke-width="1.2499"/>
<path d="M114.195 132.559L114.498 132.726L114.8 132.559L162.68 106.141V114.571L114.498 142.389L66.3145 114.569V106.139L114.195 132.559Z" fill="#232621" stroke="#C9C9C9" stroke-width="1.2499"/>
<path d="M162.054 105.083L114.498 132.541L66.9385 105.082L114.495 77.6235L162.054 105.083Z" fill="#232621" stroke="#C9C9C9" stroke-width="1.2499"/>
<g opacity="0.5">
<mask id="path-121-inside-6_92_1827" fill="white">
<path d="M114.499 132.449L66.3927 104.676L65.6895 105.081L114.499 133.261L163.305 105.082L162.603 104.676L114.499 132.449Z"/>
</mask>
<path d="M114.499 132.449L66.3927 104.676L65.6895 105.081L114.499 133.261L163.305 105.082L162.603 104.676L114.499 132.449Z" fill="#232621"/>
<path d="M114.499 132.449L113.874 133.532L114.499 133.892L115.124 133.532L114.499 132.449ZM66.3927 104.676L67.0176 103.594L66.3936 103.234L65.7691 103.593L66.3927 104.676ZM65.6895 105.081L65.0659 103.998L63.1869 105.079L65.0645 106.164L65.6895 105.081ZM114.499 133.261L113.874 134.344L114.499 134.705L115.124 134.344L114.499 133.261ZM163.305 105.082L163.93 106.165L165.802 105.083L163.93 104L163.305 105.082ZM162.603 104.676L163.229 103.594L162.603 103.233L161.978 103.594L162.603 104.676ZM114.499 132.449L115.124 131.367L67.0176 103.594L66.3927 104.676L65.7677 105.759L113.874 133.532L114.499 132.449ZM66.3927 104.676L65.7691 103.593L65.0659 103.998L65.6895 105.081L66.313 106.164L67.0162 105.76L66.3927 104.676ZM65.6895 105.081L65.0645 106.164L113.874 134.344L114.499 133.261L115.124 132.179L66.3144 103.999L65.6895 105.081ZM114.499 133.261L115.124 134.344L163.93 106.165L163.305 105.082L162.68 104L113.874 132.179L114.499 133.261ZM163.305 105.082L163.93 104L163.229 103.594L162.603 104.676L161.977 105.758L162.679 106.164L163.305 105.082ZM162.603 104.676L161.978 103.594L113.874 131.367L114.499 132.449L115.124 133.532L163.228 105.759L162.603 104.676Z" fill="#C9C9C9" mask="url(#path-121-inside-6_92_1827)"/>
</g>
<path d="M143.422 105.083L114.498 121.782L85.5751 105.083L114.497 88.3843L143.422 105.083Z" fill="#232621" stroke="#C9C9C9" stroke-width="1.2499"/>
<path opacity="0.5" d="M143.421 105.084L114.498 121.784L85.5737 105.084L114.498 88.3853L143.421 105.084Z" fill="#232621" stroke="#C9C9C9" stroke-width="1.2499"/>
<path opacity="0.5" d="M144.045 81.0747V104.002L115.122 87.3022V64.3745L144.045 81.0747Z" fill="#232621" stroke="#C9C9C9" stroke-width="1.2499"/>
<path opacity="0.5" d="M113.872 87.3022L84.9493 104V81.0737L113.872 64.3745V87.3022Z" fill="#232621" stroke="#C9C9C9" stroke-width="1.2499"/>
<path opacity="0.5" d="M143.421 80.7134L114.497 97.4136L85.5734 80.7134L114.496 64.0132L143.421 80.7134Z" fill="#232621" stroke="#C9C9C9" stroke-width="1.2499"/>
<path opacity="0.5" d="M144.045 104.725L115.122 121.423V98.4961L144.045 81.7969V104.725Z" fill="#232621" stroke="#C9C9C9" stroke-width="1.2499"/>
<path opacity="0.5" d="M113.873 98.4956V121.423L84.9497 104.723V81.7954L113.873 98.4956Z" fill="#232621" stroke="#C9C9C9" stroke-width="1.2499"/>
<defs>
<linearGradient id="paint0_linear_92_1827" x1="264.219" y1="112.917" x2="295.135" y2="59.3701" gradientUnits="userSpaceOnUse">
<stop stop-color="#C0BFF6"/>
<stop offset="0.2938" stop-color="#C5C4F7"/>
<stop offset="0.6399" stop-color="#D3D2F9"/>
<stop offset="1" stop-color="#E9E9FD"/>
</linearGradient>
</defs>
</svg>
