<svg width="464" height="688" viewBox="0 0 464 688" fill="none" xmlns="http://www.w3.org/2000/svg">
<rect x="0.5" y="0.5" width="463" height="687" rx="7.5" fill="white"/>
<rect x="0.5" y="0.5" width="463" height="687" rx="7.5" stroke="#E6E7E4"/>
<path d="M329.353 320.901H329.354L438.878 384.135L387.549 413.66L387.323 413.53V413.529L277.797 350.297L329.126 320.77L329.353 320.901ZM328.845 321.979L280.458 349.812L279.617 350.297L280.458 350.783L387.27 412.452L387.549 412.613L387.829 412.452L436.216 384.618L437.058 384.134L436.216 383.648L329.405 321.979L329.124 321.818L328.845 321.979Z" fill="white" stroke="#C9C9C9" stroke-width="1.12"/>
<path d="M437.405 192.917V317.3L329.684 255.107V130.725L437.405 192.917ZM425.536 199.772L425.256 199.61L342.395 151.771L341.555 151.286V248.255L341.835 248.417L424.696 296.257L425.536 296.741V199.772Z" fill="white" stroke="#C9C9C9" stroke-width="1.12"/>
<path d="M422.503 201.442V325.825L314.781 263.633V139.25L422.503 201.442ZM410.634 208.298L410.353 208.136L327.493 160.296L326.652 159.812V256.78L326.933 256.942L409.794 304.782L410.634 305.267V208.298Z" fill="white" stroke="#C9C9C9" stroke-width="1.12"/>
<path d="M436.845 192.594L423.063 200.477L315.346 138.283L329.123 130.4L436.845 192.594Z" fill="white" stroke="#C9C9C9" stroke-width="1.12"/>
<path d="M437.407 317.946L423.622 325.832V201.447L437.407 193.561V317.946Z" fill="white" stroke="#C9C9C9" stroke-width="1.12"/>
<path d="M341.545 169.702L341.554 247.603L327.771 255.491V161.75L341.545 169.702Z" fill="white" stroke="#C9C9C9" stroke-width="1.12"/>
<path d="M409.516 287.493L409.51 303.327L328.336 256.459L342.113 248.577L409.516 287.493Z" fill="white" stroke="#C9C9C9" stroke-width="1.12"/>
<path opacity="0.5" d="M409.511 208.945V293.447L335.749 251.567V166.406L409.511 208.945Z" fill="white" stroke="#C9C9C9" stroke-width="1.12"/>
<path d="M401.891 213.395V337.778L294.169 275.585V151.203L401.891 213.395ZM390.021 220.25L389.741 220.088L306.881 172.249L306.04 171.764V268.733L306.32 268.895L389.182 316.735L390.021 317.219V220.25Z" fill="white" stroke="#C9C9C9" stroke-width="1.12"/>
<path d="M386.988 221.918V346.301L279.267 284.109V159.726L386.988 221.918ZM375.119 228.774L374.839 228.612L291.979 180.772L291.138 180.287V277.256L291.418 277.418L374.279 325.258L375.119 325.742V228.774Z" fill="white" stroke="#C9C9C9" stroke-width="1.12"/>
<path d="M401.33 213.072L387.549 220.955L279.831 158.761L293.608 150.878L401.33 213.072Z" fill="white" stroke="#C9C9C9" stroke-width="1.12"/>
<path d="M401.892 338.425L388.107 346.31V221.926L401.892 214.04V338.425Z" fill="white" stroke="#C9C9C9" stroke-width="1.12"/>
<path d="M306.03 190.18L306.04 268.082L292.256 275.969V182.228L306.03 190.18Z" fill="white" stroke="#C9C9C9" stroke-width="1.12"/>
<path d="M374.002 307.969L373.997 323.803L292.821 276.936L306.598 269.053L374.002 307.969Z" fill="white" stroke="#C9C9C9" stroke-width="1.12"/>
<path opacity="0.5" d="M373.996 229.421V313.923L300.234 272.043V186.885L373.996 229.421Z" fill="white" stroke="#C9C9C9" stroke-width="1.12"/>
<path d="M388.108 221.275L387.828 221.114L279.847 158.77L281.266 157.99L389.555 220.512V345.533L388.108 346.328V221.275Z" fill="white" stroke="#C9C9C9" stroke-width="1.12"/>
<path d="M423.624 200.799L423.343 200.638L315.363 138.293L316.782 137.514L425.073 200.035V325.057L423.624 325.852V200.799Z" fill="white" stroke="#C9C9C9" stroke-width="1.12"/>
<path d="M293.704 183.063V275.847L293.984 276.009L373.996 322.204V323.803L292.256 276.61V182.227L293.704 183.063Z" fill="white" stroke="#C9C9C9" stroke-width="1.12"/>
<path opacity="0.5" d="M403.013 212.748L402.733 212.586L294.728 150.228L314.221 138.926L422.503 201.444V326.474L403.013 337.775V212.748Z" fill="white" stroke="#C9C9C9" stroke-width="1.12"/>
<path opacity="0.5" d="M421.945 201.122L402.451 212.423L294.728 150.228L314.221 138.926L421.945 201.122Z" fill="white" stroke="#C9C9C9" stroke-width="1.12"/>
<path opacity="0.6" d="M234.477 506.165L342.699 443.682L234.48 381.203L126.258 443.684L234.477 506.165Z" fill="#16C916"/>
<path d="M342.757 372.659L235.036 434.852V387.879L342.757 325.684V372.659Z" fill="white" stroke="#16C916" stroke-width="1.12"/>
<path d="M342.198 324.713L234.477 386.906L126.757 324.715L234.48 262.522L342.198 324.713Z" fill="white" stroke="#16C916" stroke-width="1.12"/>
<path d="M316.222 324.714L234.477 371.909L152.733 324.716L234.478 277.519L316.222 324.714Z" fill="white" stroke="#16C916" stroke-width="1.12"/>
<path d="M233.919 387.879V434.852L126.195 372.659V325.684L233.919 387.879Z" fill="white" stroke="#16C916" stroke-width="1.12"/>
<path d="M342.757 295.052L235.035 357.245V310.269L342.757 248.077V295.052Z" fill="white" stroke="#16C916" stroke-width="1.12"/>
<path d="M342.198 247.104L234.476 309.299L126.756 247.107L234.48 184.913L342.198 247.104Z" fill="white" stroke="#16C916" stroke-width="1.12"/>
<path d="M342.199 247.103L234.476 309.297L126.756 247.106L127.731 246.542L234.197 308.013L234.477 308.174L234.757 308.013L341.226 246.541L342.199 247.103Z" stroke="#16C916" stroke-width="1.12"/>
<path d="M342.199 324.717L234.476 386.91L126.756 324.719L127.73 324.156L234.197 385.625L234.477 385.787L234.757 385.625L341.226 324.155L342.199 324.717Z" stroke="#16C916" stroke-width="1.12"/>
<path d="M309.63 252.342L234.477 295.731L159.322 252.34L234.48 208.951L309.63 252.342Z" fill="white" stroke="#16C916" stroke-width="1.12"/>
<path d="M318.702 247.106L310.752 251.698L234.76 207.823L234.48 207.662L234.2 207.823L158.202 251.698L150.252 247.108L234.479 198.48L318.702 247.106Z" fill="white" stroke="#16C916" stroke-width="1.12"/>
<path d="M233.918 310.269V357.245L126.195 295.052V248.077L233.918 310.269Z" fill="white" stroke="#16C916" stroke-width="1.12"/>
<path d="M198.597 308.61C199.489 308.096 200.82 308.114 202.436 309.048C204.049 309.979 205.541 311.599 206.63 313.486C207.72 315.374 208.377 317.476 208.378 319.338C208.378 321.203 207.727 322.365 206.836 322.88C205.944 323.395 204.612 323.377 202.996 322.444C201.383 321.513 199.892 319.893 198.802 318.006C197.713 316.118 197.054 314.016 197.054 312.154C197.054 310.288 197.706 309.125 198.597 308.61Z" stroke="#16C916" stroke-width="1.12"/>
<path d="M175.937 295.527C176.828 295.013 178.16 295.031 179.776 295.964C181.388 296.895 182.88 298.515 183.97 300.402C185.06 302.29 185.717 304.392 185.717 306.254C185.717 308.119 185.066 309.281 184.175 309.796C183.283 310.311 181.951 310.293 180.335 309.36C178.723 308.429 177.231 306.809 176.142 304.922C175.052 303.034 174.394 300.932 174.394 299.07C174.394 297.205 175.045 296.042 175.937 295.527Z" stroke="#16C916" stroke-width="1.12"/>
<path d="M153.277 282.444C154.168 281.929 155.5 281.948 157.116 282.88C158.728 283.811 160.22 285.431 161.31 287.319C162.4 289.206 163.057 291.308 163.057 293.17C163.057 295.036 162.406 296.198 161.515 296.712C160.624 297.227 159.291 297.21 157.675 296.277C156.063 295.346 154.572 293.726 153.482 291.838C152.392 289.951 151.734 287.849 151.734 285.987C151.734 284.121 152.385 282.958 153.277 282.444Z" stroke="#16C916" stroke-width="1.12"/>
<path d="M198.801 308.544C198.684 309.052 198.621 309.607 198.621 310.206C198.621 312.311 199.356 314.606 200.518 316.618C201.68 318.631 203.299 320.415 205.122 321.467C205.942 321.941 206.738 322.214 207.491 322.314C207.118 322.758 206.645 323.037 206.103 323.154C205.281 323.33 204.217 323.149 202.996 322.445C201.383 321.514 199.892 319.893 198.802 318.006C197.713 316.119 197.054 314.017 197.054 312.155C197.054 310.902 197.355 309.969 197.818 309.346C198.085 308.987 198.416 308.719 198.801 308.544Z" stroke="#16C916" stroke-width="1.12"/>
<path d="M176.14 295.462C176.022 295.969 175.96 296.524 175.96 297.123C175.96 299.228 176.696 301.522 177.858 303.535C179.019 305.547 180.638 307.331 182.461 308.384C183.282 308.858 184.078 309.131 184.831 309.23C184.458 309.675 183.985 309.954 183.443 310.07C182.621 310.246 181.557 310.066 180.335 309.361C178.723 308.43 177.231 306.81 176.142 304.923C175.052 303.035 174.394 300.933 174.394 299.071C174.394 297.819 174.694 296.887 175.157 296.263C175.424 295.904 175.755 295.636 176.14 295.462Z" stroke="#16C916" stroke-width="1.12"/>
<path d="M153.48 282.378C153.362 282.886 153.3 283.44 153.3 284.04C153.3 286.144 154.036 288.438 155.198 290.451C156.36 292.463 157.978 294.248 159.801 295.3C160.622 295.774 161.417 296.047 162.17 296.147C161.797 296.591 161.325 296.871 160.783 296.987C159.961 297.163 158.897 296.982 157.675 296.278C156.063 295.347 154.572 293.727 153.482 291.839C152.392 289.952 151.734 287.85 151.734 285.988C151.734 284.736 152.033 283.804 152.497 283.18C152.764 282.821 153.095 282.553 153.48 282.378Z" stroke="#16C916" stroke-width="1.12"/>
<path d="M198.597 386.217C199.489 385.702 200.821 385.72 202.436 386.653C204.049 387.584 205.541 389.205 206.63 391.093C207.72 392.98 208.378 395.082 208.378 396.944C208.378 398.809 207.727 399.971 206.836 400.486C205.944 401.001 204.612 400.983 202.996 400.051C201.383 399.119 199.892 397.499 198.802 395.611C197.713 393.724 197.054 391.622 197.054 389.76C197.054 387.894 197.706 386.731 198.597 386.217Z" stroke="#16C916" stroke-width="1.12"/>
<path d="M175.937 373.137C176.828 372.623 178.16 372.64 179.776 373.574C181.388 374.505 182.88 376.126 183.97 378.013C185.06 379.901 185.717 382.003 185.717 383.865C185.717 385.73 185.066 386.892 184.175 387.407C183.283 387.921 181.951 387.904 180.335 386.971C178.723 386.04 177.231 384.419 176.142 382.532C175.052 380.644 174.394 378.542 174.394 376.68C174.394 374.815 175.045 373.652 175.937 373.137Z" stroke="#16C916" stroke-width="1.12"/>
<path d="M153.277 360.054C154.168 359.54 155.5 359.558 157.116 360.491C158.728 361.422 160.22 363.042 161.31 364.929C162.4 366.817 163.057 368.919 163.057 370.781C163.057 372.646 162.406 373.808 161.515 374.323C160.624 374.837 159.291 374.82 157.675 373.887C156.063 372.956 154.572 371.336 153.482 369.449C152.392 367.561 151.734 365.459 151.734 363.597C151.734 361.732 152.385 360.569 153.277 360.054Z" stroke="#16C916" stroke-width="1.12"/>
<path d="M198.8 386.155C198.683 386.662 198.621 387.217 198.621 387.816C198.621 389.921 199.356 392.216 200.518 394.228C201.68 396.241 203.299 398.024 205.122 399.077C205.942 399.551 206.738 399.824 207.491 399.924C207.118 400.368 206.645 400.647 206.103 400.763C205.281 400.939 204.217 400.759 202.996 400.054C201.383 399.123 199.892 397.503 198.802 395.616C197.713 393.729 197.054 391.626 197.054 389.764C197.054 388.512 197.354 387.579 197.817 386.956C198.084 386.597 198.415 386.33 198.8 386.155Z" stroke="#16C916" stroke-width="1.12"/>
<path d="M176.141 373.071C176.023 373.578 175.96 374.133 175.96 374.733C175.96 376.838 176.696 379.132 177.858 381.145C179.019 383.157 180.638 384.941 182.461 385.994C183.282 386.468 184.078 386.741 184.831 386.84C184.458 387.285 183.985 387.564 183.443 387.68C182.621 387.856 181.557 387.676 180.335 386.971C178.723 386.04 177.231 384.42 176.142 382.533C175.052 380.645 174.394 378.543 174.394 376.681C174.394 375.428 174.694 374.496 175.157 373.873C175.424 373.513 175.755 373.245 176.141 373.071Z" stroke="#16C916" stroke-width="1.12"/>
<path d="M153.481 359.987C153.363 360.495 153.3 361.05 153.3 361.649C153.3 363.754 154.036 366.048 155.198 368.061C156.36 370.073 157.978 371.858 159.801 372.91C160.622 373.384 161.417 373.657 162.17 373.757C161.797 374.201 161.325 374.48 160.783 374.597C159.961 374.773 158.897 374.592 157.675 373.888C156.063 372.957 154.572 371.336 153.482 369.449C152.392 367.562 151.734 365.46 151.734 363.598C151.734 362.345 152.034 361.412 152.497 360.789C152.764 360.43 153.096 360.162 153.481 359.987Z" stroke="#16C916" stroke-width="1.12"/>
<path d="M342.757 214.76L235.035 276.953V258.556L342.757 196.364V214.76Z" fill="white" stroke="#16C916" stroke-width="1.12"/>
<path d="M342.198 195.392L234.476 257.586L126.756 195.393L234.48 133.2L342.198 195.392Z" fill="white" stroke="#16C916" stroke-width="1.12"/>
<path d="M342.198 195.389L234.476 257.583L126.756 195.391L127.73 194.829L234.196 256.298L234.477 256.46L234.757 256.298L341.226 194.828L342.198 195.389Z" stroke="#16C916" stroke-width="1.12"/>
<path d="M233.918 258.556V276.953L126.194 214.76V196.364L233.918 258.556Z" fill="white" stroke="#16C916" stroke-width="1.12"/>
<path opacity="0.5" d="M342.756 324.395L235.034 386.589L235.035 358.54L342.756 296.347V324.395Z" fill="white" stroke="#16C916" stroke-width="1.12"/>
<path opacity="0.5" d="M233.916 358.54L233.915 386.589L126.195 324.397L126.194 296.347L233.916 358.54Z" fill="white" stroke="#16C916" stroke-width="1.12"/>
<path d="M301.895 367.974C302.888 367.401 303.654 367.48 304.162 367.864C304.705 368.275 305.135 369.164 305.135 370.572C305.135 371.968 304.708 373.503 304.004 374.848C303.297 376.197 302.342 377.299 301.336 377.88L275.895 392.568C274.903 393.141 274.138 393.062 273.63 392.678C273.087 392.267 272.657 391.378 272.656 389.97C272.656 388.574 273.083 387.039 273.787 385.694C274.493 384.345 275.449 383.243 276.455 382.662L301.895 367.974Z" stroke="#16C916" stroke-width="1.12"/>
<path d="M301.915 367.965C302.901 367.402 303.66 367.482 304.165 367.864C304.708 368.275 305.138 369.164 305.138 370.573C305.138 371.968 304.711 373.503 304.007 374.848C303.301 376.197 302.345 377.299 301.339 377.88L275.899 392.568C274.924 393.131 274.17 393.063 273.666 392.7C273.175 392.346 272.771 391.607 272.683 390.447L297.56 376.084C298.806 375.365 299.891 374.072 300.66 372.602C301.408 371.174 301.885 369.526 301.915 367.965Z" stroke="#16C916" stroke-width="1.12"/>
<path d="M186.202 528.073L134.873 557.598L25.1211 494.234L76.4502 464.709L186.202 528.073ZM76.1709 465.917L27.7822 493.751L26.9404 494.235L27.7822 494.721L134.594 556.39L134.873 556.551L135.153 556.39L183.541 528.557L184.384 528.072L183.542 527.586L76.7295 465.917L76.4502 465.756L76.1709 465.917Z" fill="white" stroke="#C9C9C9" stroke-width="1.12"/>
<path d="M184.729 336.857V461.238L77.0076 399.045V274.663L184.729 336.857ZM172.86 343.71L172.58 343.548L89.7195 295.708L88.8787 295.224V392.193L89.159 392.355L172.02 440.195L172.86 440.679V343.71Z" fill="white" stroke="#C9C9C9" stroke-width="1.12"/>
<path d="M169.827 345.382V469.765L62.1053 407.572V283.189L169.827 345.382ZM157.958 352.235L157.678 352.073L74.8172 304.233L73.9764 303.749V400.718L74.2567 400.88L157.118 448.72L157.958 449.204V352.235Z" fill="white" stroke="#C9C9C9" stroke-width="1.12"/>
<path d="M184.169 336.532L170.388 344.415L62.6698 282.223L76.4471 274.338L184.169 336.532Z" fill="white" stroke="#C9C9C9" stroke-width="1.12"/>
<path d="M184.731 461.884L170.946 469.77V345.385L184.731 337.499V461.884Z" fill="white" stroke="#C9C9C9" stroke-width="1.12"/>
<path d="M88.8686 313.64L88.8784 391.542L75.0952 399.429V305.688L88.8686 313.64Z" fill="white" stroke="#C9C9C9" stroke-width="1.12"/>
<path d="M156.84 431.428L156.835 447.262L75.6597 400.395L89.437 392.512L156.84 431.428Z" fill="white" stroke="#C9C9C9" stroke-width="1.12"/>
<path opacity="0.5" d="M156.835 352.883V437.385L83.073 395.505V310.346L156.835 352.883Z" fill="white" stroke="#C9C9C9" stroke-width="1.12"/>
<path d="M149.215 357.331V481.714L41.4931 419.521V295.138L149.215 357.331ZM137.346 364.184L137.065 364.022L54.205 316.182L53.3642 315.698V412.667L53.6444 412.829L136.506 460.669L137.346 461.153V364.184Z" fill="white" stroke="#C9C9C9" stroke-width="1.12"/>
<path d="M134.314 365.858V490.241L26.5908 428.049V303.666L134.314 365.858ZM122.443 372.712L122.163 372.55L39.3027 324.71L38.4619 324.226V421.194L38.7422 421.356L121.603 469.196L122.443 469.681V372.712Z" fill="white" stroke="#C9C9C9" stroke-width="1.12"/>
<path d="M148.654 357.006L134.873 364.888L27.1552 302.697L40.9326 294.814L148.654 357.006Z" fill="white" stroke="#C9C9C9" stroke-width="1.12"/>
<path d="M149.217 482.361L135.431 490.246V365.862L149.217 357.976V482.361Z" fill="white" stroke="#C9C9C9" stroke-width="1.12"/>
<path d="M53.354 334.116L53.3638 412.018L39.5806 419.905V326.164L53.354 334.116Z" fill="white" stroke="#C9C9C9" stroke-width="1.12"/>
<path d="M121.326 451.906L121.32 467.74L40.1451 420.873L53.9224 412.99L121.326 451.906Z" fill="white" stroke="#C9C9C9" stroke-width="1.12"/>
<path opacity="0.5" d="M121.32 373.356V457.858L47.5584 415.98V330.82L121.32 373.356Z" fill="white" stroke="#C9C9C9" stroke-width="1.12"/>
<path d="M135.433 365.214L135.152 365.052L27.1718 302.709L28.5908 301.928L136.882 364.45V489.471L135.433 490.266V365.214Z" fill="white" stroke="#C9C9C9" stroke-width="1.12"/>
<path d="M170.948 344.735L170.668 344.573L62.6872 282.23L64.1062 281.449L172.395 343.971V468.992L170.948 469.787V344.735Z" fill="white" stroke="#C9C9C9" stroke-width="1.12"/>
<path d="M41.0288 326.999V419.783L41.3081 419.944L121.32 466.14V467.738L39.5806 420.546V326.163L41.0288 326.999Z" fill="white" stroke="#C9C9C9" stroke-width="1.12"/>
<path opacity="0.5" d="M150.337 356.686L150.057 356.524L42.0517 294.167L61.5448 282.866L169.827 345.381V470.412L150.337 481.712V356.686Z" fill="white" stroke="#C9C9C9" stroke-width="1.12"/>
<path opacity="0.5" d="M169.269 345.059L149.776 356.362L42.0517 294.167L61.5448 282.866L169.269 345.059Z" fill="white" stroke="#C9C9C9" stroke-width="1.12"/>
</svg>
