<svg width="32" height="32" viewBox="0 0 32 32" fill="none" xmlns="http://www.w3.org/2000/svg">
<path d="M21.5693 24.6064C21.9702 24.7989 22.4672 25.2959 22.7077 25.6967C22.7879 26.2579 23.1887 24.0934 25.1449 22.8107M28.6667 23.9998C28.6667 26.9454 26.2789 29.3332 23.3333 29.3332C20.3878 29.3332 18 26.9454 18 23.9998C18 21.0543 20.3878 18.6665 23.3333 18.6665C26.2789 18.6665 28.6667 21.0543 28.6667 23.9998Z" stroke="#16C916" stroke-width="1.5" stroke-linecap="round"/>
<circle cx="14.6769" cy="16.0002" r="2.66667" stroke="#16C916" stroke-width="1.5"/>
<path d="M10.0102 24.0002C11.2768 22.8002 12.3435 22.1335 14.7102 22.0002M26.0102 15.3335C26.0102 14.2668 26.0435 11.0002 25.8769 9.66683C25.7769 8.56683 25.4769 7.06683 24.1102 6.20016C23.2769 5.76683 22.4769 5.36683 18.6435 5.3335M10.6102 5.3335C7.74352 5.3335 5.51018 5.56683 4.41019 6.9335C3.47685 8.20905 3.53241 9.66683 3.44351 10.1335C3.24352 12.6335 3.37685 21.3668 3.37685 22.8335C3.37685 24.3668 3.27684 27.4835 5.37685 28.5335C7.17685 29.4335 9.04352 29.3002 15.3769 29.3335" stroke="#16C916" stroke-width="1.5" stroke-linecap="round"/>
<path d="M14.4775 2.6666C13.6775 2.6666 13.0109 2.6666 12.3442 3.3666C11.7775 3.89993 11.8654 4.3709 11.6442 5.19993C11.3328 6.3666 11.1772 6.98191 11.6109 7.4666C12.0084 7.98701 12.6766 7.98869 13.2666 7.99018L13.2775 7.99021C13.8442 8.03034 15.7489 8.01197 16.3109 7.99021C16.9146 7.96683 17.4006 7.93326 17.8109 7.39993C18.1775 6.92327 17.9601 6.13002 17.7442 5.29993C17.5312 4.48095 17.6109 4.0666 17.0442 3.3666C16.2442 2.5666 15.2775 2.6666 14.4775 2.6666Z" stroke="#16C916" stroke-width="1.5" stroke-linecap="round"/>
</svg>
